<svg width="54" height="60" viewBox="0 0 54 60" fill="none" xmlns="http://www.w3.org/2000/svg">
<path fill-rule="evenodd" clip-rule="evenodd" d="M48.7308 54.166L27.1999 60L5.66858 54.166L0.699982 0H53.7L48.7308 54.166Z" fill="#2062AF"/>
<path fill-rule="evenodd" clip-rule="evenodd" d="M27.1996 4.38739V55.3471L27.2484 55.3604L44.6724 50.6392L48.6944 4.38739H27.1996Z" fill="#3C9CD7"/>
<path fill-rule="evenodd" clip-rule="evenodd" d="M27.1806 17.931L11.77 24.3894L12.281 30.7837L27.1806 24.3732L43.0296 17.5543L43.6868 11.0132L27.1806 17.931Z" fill="white"/>
<mask id="mask0_104_125" style="mask-type:luminance" maskUnits="userSpaceOnUse" x="11" y="17" width="17" height="14">
<path fill-rule="evenodd" clip-rule="evenodd" d="M11.7432 17.9041H27.2074V30.8108H11.7432V17.9041Z" fill="url(#paint0_linear_104_125)"/>
</mask>
<g mask="url(#mask0_104_125)">
<path fill-rule="evenodd" clip-rule="evenodd" d="M11.77 24.3895L12.281 30.7838L27.1804 24.3733V17.9311L11.77 24.3895Z" fill="url(#paint1_linear_104_125)"/>
</g>
<mask id="mask1_104_125" style="mask-type:luminance" maskUnits="userSpaceOnUse" x="27" y="10" width="17" height="15">
<path fill-rule="evenodd" clip-rule="evenodd" d="M27.1537 10.9865H43.7136V24.4003H27.1537V10.9865Z" fill="url(#paint2_linear_104_125)"/>
</mask>
<g mask="url(#mask1_104_125)">
<path fill-rule="evenodd" clip-rule="evenodd" d="M43.6868 11.0135L27.1806 17.9311V24.3733L43.0296 17.5544L43.6868 11.0135Z" fill="url(#paint3_linear_104_125)"/>
</g>
<path fill-rule="evenodd" clip-rule="evenodd" d="M11.7936 24.3895L12.3048 30.7838L35.1661 30.8571L34.6547 39.3828L27.1321 41.514L19.9006 39.6765L19.4623 34.3847H12.7431L13.6196 44.6008L27.2051 48.643L40.7169 44.674L42.4699 24.3895H11.7936Z" fill="url(#paint4_linear_104_125)"/>
<path fill-rule="evenodd" clip-rule="evenodd" d="M27.1806 24.3895H11.7702L12.2812 30.7838L27.1806 30.8317V24.3895ZM27.1806 41.4934L27.1076 41.514L19.8771 39.6765L19.4389 34.3847H12.7198L13.5961 44.6008L27.1806 48.643V41.4934Z" fill="black" fill-opacity="0.05098"/>
<path fill-rule="evenodd" clip-rule="evenodd" d="M10.3823 11.0135H43.6867L43.0296 17.5545H11.1856L10.3823 11.0135Z" fill="url(#paint5_linear_104_125)"/>
<path fill-rule="evenodd" clip-rule="evenodd" d="M27.1806 11.0135H10.3823L11.1856 17.5545H27.1806V11.0135Z" fill="black" fill-opacity="0.05098"/>
<defs>
<linearGradient id="paint0_linear_104_125" x1="19.4752" y1="17.9311" x2="19.4752" y2="30.7838" gradientUnits="userSpaceOnUse">
<stop stop-color="white" stop-opacity="0"/>
<stop offset="0.388" stop-color="white"/>
<stop offset="1" stop-color="white" stop-opacity="0.831"/>
</linearGradient>
<linearGradient id="paint1_linear_104_125" x1="19.4752" y1="17.9311" x2="19.4752" y2="30.7838" gradientUnits="userSpaceOnUse">
<stop stop-color="#D1D3D4"/>
<stop offset="0.388" stop-color="#D1D3D4"/>
<stop offset="1" stop-color="#D1D3D4"/>
</linearGradient>
<linearGradient id="paint2_linear_104_125" x1="35.4337" y1="11.0135" x2="35.4337" y2="24.3733" gradientUnits="userSpaceOnUse">
<stop stop-color="white" stop-opacity="0"/>
<stop offset="0.388" stop-color="white"/>
<stop offset="1" stop-color="white" stop-opacity="0.831"/>
</linearGradient>
<linearGradient id="paint3_linear_104_125" x1="35.4337" y1="11.0135" x2="35.4337" y2="24.3733" gradientUnits="userSpaceOnUse">
<stop stop-color="#D1D3D4"/>
<stop offset="0.388" stop-color="#D1D3D4"/>
<stop offset="1" stop-color="#D1D3D4"/>
</linearGradient>
<linearGradient id="paint4_linear_104_125" x1="11.7937" y1="36.5163" x2="42.4699" y2="36.5163" gradientUnits="userSpaceOnUse">
<stop stop-color="#E8E7E5"/>
<stop offset="1" stop-color="white"/>
</linearGradient>
<linearGradient id="paint5_linear_104_125" x1="10.3822" y1="14.284" x2="43.6867" y2="14.284" gradientUnits="userSpaceOnUse">
<stop stop-color="#E8E7E5"/>
<stop offset="1" stop-color="white"/>
</linearGradient>
</defs>
</svg>
