<svg width="49" height="60" viewBox="0 0 49 60" fill="none" xmlns="http://www.w3.org/2000/svg">
<path d="M12.8 60C19.4211 60 24.8 55.5225 24.8 50V40H12.8C6.17886 40 0.799957 44.4775 0.799957 50C0.799957 55.5225 6.17886 60 12.8 60Z" fill="#0ACF83"/>
<path d="M0.799957 30C0.799957 24.4824 6.17886 20 12.8 20H24.8V40H12.8C6.17886 40 0.799957 35.5225 0.799957 30Z" fill="#A259FF"/>
<path d="M0.799957 10C0.799957 4.48242 6.17886 0 12.8 0H24.8V20H12.8C6.17886 20 0.799957 15.5225 0.799957 10Z" fill="#F24E1E"/>
<path d="M24.8 0H36.8C43.4211 0 48.8 4.48242 48.8 10C48.8 15.5225 43.4269 20 36.8 20H24.8V0Z" fill="#FF7262"/>
<path d="M48.8 30C48.8 35.5225 43.4269 40 36.8 40C30.173 40 24.8 35.5225 24.8 30C24.8 24.4824 30.173 20 36.8 20C43.4269 20 48.8 24.4824 48.8 30Z" fill="#1ABCFE"/>
</svg>
