<svg width="60" height="60" viewBox="0 0 60 60" fill="none" xmlns="http://www.w3.org/2000/svg">
<path d="M58.8683 27.3241L32.671 1.13164C31.1621 -0.377213 28.7157 -0.377213 27.2069 1.13164L21.7672 6.57131L28.6669 13.471C30.2734 12.929 32.1094 13.2903 33.3888 14.5697C34.673 15.8539 35.0344 17.7095 34.4777 19.3209L41.1284 25.9715C42.7397 25.4149 44.5953 25.7762 45.8795 27.0604C47.6765 28.8574 47.6765 31.7677 45.8795 33.5597C44.0826 35.3567 41.1723 35.3567 39.3754 33.5597C38.0228 32.2071 37.6907 30.2246 38.3743 28.5595L32.1729 22.3581V38.682C32.6124 38.8968 33.0226 39.1898 33.3888 39.5512C35.1857 41.3481 35.1857 44.2584 33.3888 46.0553C31.5918 47.8523 28.6816 47.8523 26.8895 46.0553C25.0925 44.2584 25.0925 41.3481 26.8895 39.5512C27.3338 39.1068 27.8466 38.7748 28.3935 38.5502V22.0749C27.8466 21.8503 27.3338 21.5182 26.8895 21.0739C25.5271 19.7164 25.2 17.7192 25.8982 16.0492L19.0913 9.24232L1.13161 27.2069C-0.377243 28.7158 -0.377243 31.1622 1.13161 32.671L27.329 58.8684C28.8378 60.3772 31.2842 60.3772 32.7931 58.8684L58.8683 32.798C60.3772 31.2842 60.3772 28.8378 58.8683 27.3241Z" fill="#F05133"/>
</svg>
