<svg width="54" height="60" viewBox="0 0 54 60" fill="none" xmlns="http://www.w3.org/2000/svg">
<path fill-rule="evenodd" clip-rule="evenodd" d="M53.9 0L49.0721 53.9941L27.3682 60L5.7231 54.0039L0.900024 0H53.9Z" fill="#E44D26"/>
<path fill-rule="evenodd" clip-rule="evenodd" d="M27.3975 55.4102L44.9386 50.5567L49.0622 4.41412H27.3975V55.4102Z" fill="#F16529"/>
<path fill-rule="evenodd" clip-rule="evenodd" d="M18.0155 17.6611H27.4024V11.04H10.7614L10.9179 12.8173L12.5468 31.0693H27.3926V24.4433H18.6221L18.0155 17.6611ZM19.5075 34.3798H12.85L13.7794 44.7802L27.3731 48.5449L27.4024 48.5351V41.6454L27.3731 41.6552L19.9819 39.663L19.5075 34.3798Z" fill="#EBEBEB"/>
<path fill-rule="evenodd" clip-rule="evenodd" d="M27.378 31.0694H35.5469L34.7789 39.6583L27.378 41.6505V48.5401L40.9814 44.7755L41.0792 43.6573L42.6396 26.2208L42.8011 24.4434H27.378V31.0694ZM27.378 17.6465V17.6612H43.4027L43.5348 16.1719L43.8381 12.8126L43.9946 11.0352H27.378V17.6465Z" fill="white"/>
</svg>
