<svg width="60" height="60" viewBox="0 0 60 60" fill="none" xmlns="http://www.w3.org/2000/svg">
<path fill-rule="evenodd" clip-rule="evenodd" d="M-3.05176e-05 0H60V60H-3.05176e-05V0Z" fill="#F7DF1E"/>
<path fill-rule="evenodd" clip-rule="evenodd" d="M15.7763 50.1416L20.3662 47.3633C21.25 48.9355 22.0556 50.2637 23.9892 50.2637C25.8398 50.2637 27.0117 49.541 27.0117 46.7188V27.5439H32.6513V46.7969C32.6513 52.6367 29.2285 55.293 24.2334 55.293C19.7216 55.293 17.1045 52.959 15.7763 50.1416ZM35.7129 49.5361L40.3027 46.8799C41.5136 48.8525 43.081 50.3027 45.8593 50.3027C48.1933 50.3027 49.6875 49.1357 49.6875 47.5244C49.6875 45.5908 48.1591 44.9072 45.581 43.7793L44.1699 43.1738C40.1025 41.4404 37.4023 39.2676 37.4023 34.6777C37.4023 30.4492 40.625 27.2266 45.6591 27.2266C49.2431 27.2266 51.8213 28.4766 53.6718 31.7383L49.2822 34.5557C48.3154 32.8223 47.2705 32.1387 45.6591 32.1387C44.0088 32.1387 42.959 33.1836 42.959 34.5557C42.959 36.2451 44.0039 36.9336 46.4209 37.9785L47.832 38.584C52.6269 40.6396 55.3222 42.7344 55.3222 47.4463C55.3222 52.5195 51.333 55.2979 45.9765 55.2979C40.747 55.2979 37.3633 52.7979 35.7129 49.5361Z" fill="white"/>
</svg>
