<svg width="151" height="50" viewBox="0 0 151 50" fill="none" xmlns="http://www.w3.org/2000/svg">
<path fill-rule="evenodd" clip-rule="evenodd" d="M119.457 0.0193761H150.6V7.99264H138.245V49.9419H132.067V7.99264H119.457V0.0193761ZM37.0995 49.5689L8.321 0H0.599945V49.9225H6.77748V10.6714L29.553 49.9419H68.2386V41.9686H43.2735V28.7929H63.3496V20.8196H43.2735V7.99264H68.2386V0.0193761H37.096V7.99264H37.0995V49.5689ZM92.0862 35.7004L88.0353 28.7154L75.6838 50H83.7889L92.0862 35.7004ZM83.7889 0.0435962H75.7047L104.661 49.9612H112.766L98.2882 25.0194L112.746 0.0775044L104.661 0.0968805L94.2408 18.0488L83.7889 0.0435962Z" fill="#020202"/>
</svg>
