<svg width="61" height="60" viewBox="0 0 61 60" fill="none" xmlns="http://www.w3.org/2000/svg">
<path fill-rule="evenodd" clip-rule="evenodd" d="M38.0679 42.5192C27.2239 42.5192 24.9505 38.105 24.9505 34.3989C24.9505 34.0473 25.2698 33.7641 25.6661 33.7641H28.8698C29.222 33.7641 29.5193 33.9936 29.5743 34.3012C30.0587 37.1968 31.4954 38.6568 38.0569 38.6568C43.2808 38.6568 45.4991 37.6118 45.4991 35.1509C45.4991 33.7348 44.8661 32.685 36.7523 31.9819C29.9652 31.3861 25.7707 30.0629 25.7707 25.2434C25.7707 20.8098 29.9872 18.1681 37.0551 18.1681C44.9927 18.1681 48.923 20.6096 49.4184 25.8636C49.4349 26.0442 49.3633 26.22 49.2257 26.3519C49.0881 26.4788 48.8954 26.5569 48.6973 26.5569H45.4826C45.1468 26.5569 44.8551 26.347 44.789 26.0638C44.0129 23.0217 42.1413 22.0451 37.0441 22.0451C31.3413 22.0451 30.6808 23.8079 30.6808 25.1262C30.6808 26.7278 31.4624 27.1966 39.1578 28.0999C46.7762 28.9984 50.3927 30.2631 50.3927 35.0141C50.3927 39.8043 45.8899 42.5485 38.0349 42.5485L38.0679 42.5192ZM30.411 60C29.5028 60 28.6055 59.79 27.8129 59.3848L19.5395 55.039C18.3009 54.4237 18.9064 54.2089 19.3138 54.0819C20.9597 53.5692 21.2954 53.4569 23.0569 52.5682C23.2441 52.4754 23.4863 52.5096 23.6734 52.6073L30.0312 55.9521C30.2624 56.0644 30.5872 56.0644 30.8019 55.9521L55.589 43.2614C55.8202 43.1442 55.9688 42.9098 55.9688 42.6657V17.2989C55.9688 17.045 55.8202 16.8204 55.5835 16.6935L30.8019 4.01253C30.5707 3.89046 30.2679 3.89046 30.0367 4.01253L5.26608 16.6935C5.02388 16.8155 4.87525 17.0499 4.87525 17.2941V42.6657C4.87525 42.9098 5.02388 43.1393 5.26057 43.2565L12.0477 46.7331C15.7303 48.3689 17.9872 46.4402 17.9872 44.5065V19.4621C17.9872 19.1056 18.3009 18.8273 18.7083 18.8273H21.8459C22.2367 18.8273 22.5615 19.1007 22.5615 19.4621V44.5163C22.5615 48.8767 19.8808 51.3768 15.2239 51.3768C13.7927 51.3768 12.6587 51.3768 9.51012 49.9998L2.99819 46.6745C1.39085 45.8493 0.400024 44.3112 0.400024 42.6657V17.2941C0.400024 15.6436 1.39085 14.1006 2.99819 13.2852L27.8074 0.589612C29.3762 -0.196537 31.4624 -0.196537 33.0202 0.589612L57.8019 13.2901C59.4037 14.1104 60.4 15.6436 60.4 17.2989V42.6705C60.4 44.3161 59.4037 45.8493 57.8019 46.6794L33.0202 59.375C32.2275 59.7803 31.3248 59.9902 30.411 59.9902V60Z" fill="#689F63"/>
</svg>
