<svg width="71" height="60" viewBox="0 0 71 60" fill="none" xmlns="http://www.w3.org/2000/svg">
<path fill-rule="evenodd" clip-rule="evenodd" d="M70.8 30.0082C70.8 25.5451 64.9951 21.3177 56.0913 18.6914C58.1478 9.95705 57.2306 3.01014 53.2088 0.784063C52.2803 0.263182 51.1979 0.0164489 50.013 0.0164489V3.08142C50.6681 3.08142 51.1979 3.20753 51.6422 3.43781C53.5848 4.50699 54.4222 8.58631 53.7671 13.8335C53.6076 15.122 53.3512 16.4818 53.0379 17.869C50.2409 17.211 47.1875 16.7011 43.9803 16.3721C42.0548 13.8335 40.0553 11.5252 38.0444 9.50745C42.6929 5.3404 47.0565 3.06497 50.0244 3.06497V0C46.0994 0 40.9668 2.69213 35.7715 7.36361C30.5762 2.71955 25.4435 0.0548296 21.5185 0.0548296V3.1198C24.4694 3.1198 28.8501 5.38426 33.5042 9.51841C31.5047 11.5361 29.5109 13.828 27.6139 16.3721C24.3896 16.7011 21.3363 17.211 18.5392 17.8799C18.2088 16.5092 17.9696 15.1768 17.7987 13.8993C17.1265 8.65211 17.9582 4.57279 19.8836 3.48716C20.3109 3.24043 20.8691 3.13077 21.5242 3.13077V0.0712784C20.328 0.0712784 19.2399 0.318012 18.3 0.838892C14.2895 3.06497 13.3895 10.0009 15.463 18.7078C6.57632 21.3397 0.799957 25.5561 0.799957 30.0082C0.799957 34.4714 6.60481 38.6987 15.5086 41.3251C13.4521 50.0594 14.3693 57.0063 18.3911 59.2324C19.3197 59.7533 20.402 60 21.604 60C25.529 60 30.6616 57.3079 35.8569 52.6364C41.0522 57.2805 46.1849 59.9452 50.1099 59.9452C51.3061 59.9452 52.3942 59.6984 53.3341 59.1776C57.3446 56.9515 58.2446 50.0155 56.1711 41.3086C65.0236 38.6877 70.8 34.4549 70.8 30.0082ZM42.3055 30.0082C42.3055 26.543 39.3888 23.7302 35.7829 23.7302C32.1826 23.7302 29.2602 26.5375 29.2602 30.0082C29.2602 33.4789 32.1769 36.2862 35.7829 36.2862C39.3888 36.2807 42.3055 33.4735 42.3055 30.0082ZM52.2233 20.8462C51.6935 22.6172 51.0384 24.443 50.2978 26.2688C49.7111 25.1723 49.1016 24.0702 48.4294 22.9736C47.7742 21.877 47.0736 20.8023 46.3729 19.7606C48.4009 20.0512 50.3548 20.4076 52.2233 20.8462ZM45.6893 35.4747C44.5784 37.328 43.4334 39.088 42.2485 40.7219C40.1237 40.9029 37.9704 40.9961 35.8 40.9961C33.6466 40.9961 31.4933 40.8974 29.3799 40.7329C28.195 39.099 27.0386 37.3554 25.9277 35.5131C24.8454 33.7147 23.8599 31.8889 22.9598 30.0466C23.8428 28.2043 24.8454 26.3675 25.9106 24.5691C27.0215 22.7159 28.1665 20.9559 29.3514 19.3219C31.4762 19.141 33.6295 19.0478 35.8 19.0478C37.9533 19.0478 40.1066 19.1465 42.22 19.311C43.4049 20.9449 44.5614 22.6885 45.6722 24.5308C46.7545 26.3292 47.7401 28.155 48.6401 29.9973C47.7401 31.834 46.7603 33.6708 45.6893 35.4747ZM50.2978 33.6873C51.0669 35.5296 51.722 37.3664 52.2689 39.1538C50.4004 39.5924 48.4294 39.9653 46.39 40.2504C47.0906 39.1922 47.7856 38.1066 48.4464 36.9935C49.0959 35.8969 49.7111 34.7839 50.2978 33.6873ZM35.8284 48.3378C34.5011 47.0218 33.1738 45.5524 31.8636 43.9459C33.1453 44.0007 34.4613 44.0446 35.7886 44.0446C37.1273 44.0446 38.4546 44.0172 39.7534 43.9459C38.466 45.5524 37.1387 47.0218 35.8284 48.3378ZM25.2156 40.2504C23.1877 39.9598 21.2337 39.6034 19.3652 39.1648C19.895 37.3938 20.5501 35.5679 21.2907 33.7421C21.8774 34.8387 22.487 35.9408 23.1592 37.0374C23.8314 38.1395 24.515 39.2086 25.2156 40.2504ZM35.7544 11.6732C37.0817 12.9891 38.409 14.4586 39.7192 16.0651C38.4375 16.0102 37.1216 15.9664 35.7943 15.9664C34.4556 15.9664 33.1282 15.9938 31.8294 16.0651C33.1169 14.4586 34.4442 12.9891 35.7544 11.6732ZM25.1986 19.7606C24.4979 20.8188 23.8029 21.9044 23.1421 23.0175C22.487 24.114 21.8717 25.2161 21.285 26.3127C20.5159 24.4704 19.8608 22.6336 19.314 20.8462C21.1881 20.4185 23.1592 20.0512 25.1986 19.7606ZM12.2843 36.9551C7.23144 34.8826 3.96728 32.163 3.96728 30.0082C3.96728 27.8534 7.23713 25.1174 12.2843 23.0613C13.5091 22.5514 14.8535 22.1018 16.2378 21.6741C17.0524 24.3663 18.1234 27.1681 19.4507 30.0356C18.1405 32.8923 17.0809 35.6776 16.2834 38.3588C14.8706 37.9311 13.5262 37.465 12.2843 36.9551ZM19.9634 56.5786C18.0208 55.5095 17.1834 51.4301 17.8385 46.183C17.998 44.8945 18.2544 43.5347 18.5677 42.1475C21.3647 42.8055 24.4181 43.3154 27.6253 43.6443C29.5508 46.1829 31.5503 48.4913 33.5612 50.509C28.9071 54.6706 24.5434 56.9515 21.5755 56.9515C20.9318 56.935 20.3906 56.8144 19.9634 56.5786ZM53.807 46.1172C54.4792 51.3643 53.6475 55.4437 51.722 56.5293C51.2948 56.776 50.7365 56.8857 50.0814 56.8857C47.1305 56.8857 42.7498 54.6212 38.0957 50.4871C40.0952 48.4693 42.089 46.1775 43.986 43.6334C47.2103 43.3044 50.2637 42.7945 53.0607 42.1201C53.3911 43.5073 53.6475 44.8396 53.807 46.1172ZM59.2985 36.9551C58.0737 37.465 56.7293 37.9146 55.345 38.3423C54.5304 35.6502 53.4595 32.8484 52.1322 29.9808C53.4424 27.1242 54.5019 24.3388 55.2995 21.6577C56.7122 22.0854 58.0509 22.5514 59.3099 23.0558C64.3628 25.1284 67.6269 27.8479 67.6269 30.0027C67.6156 32.163 64.3514 34.8935 59.2985 36.9551Z" fill="#00D8FF"/>
</svg>
