<svg width="56" height="60" viewBox="0 0 56 60" fill="none" xmlns="http://www.w3.org/2000/svg">
<path fill-rule="evenodd" clip-rule="evenodd" d="M48.2731 11.5509C48.2275 11.2482 47.9536 11.0821 47.7254 11.0626C47.4971 11.0431 43.0643 10.9796 43.0643 10.9796C43.0643 10.9796 39.3516 7.51267 38.9864 7.15622C38.6212 6.80464 37.9061 6.91207 37.6271 6.99019C37.6221 6.99019 36.9323 7.20016 35.7607 7.54686C35.5679 6.93648 35.2788 6.18938 34.868 5.4374C33.5493 3.01055 31.6118 1.72632 29.2737 1.72144C29.2686 1.72144 29.2686 1.72144 29.2635 1.72144C29.1012 1.72144 28.9389 1.73609 28.7766 1.75074C28.7056 1.67261 28.6397 1.59448 28.5636 1.51635C27.5442 0.46651 26.2407 -0.0413212 24.6734 0.00262577C21.6556 0.0856367 18.648 2.18533 16.2084 5.91593C14.4941 8.5381 13.1855 11.8341 12.8153 14.3879C9.35114 15.4231 6.92676 16.1458 6.87097 16.1605C5.12116 16.6878 5.06536 16.7415 4.83713 18.3285C4.6799 19.5248 0.0999451 53.613 0.0999451 53.613L38.4691 60L55.0999 56.0204C55.0999 56.0204 48.3137 11.8537 48.2731 11.5509ZM33.8384 8.11817C32.9559 8.38185 31.9517 8.67971 30.8612 9.00687C30.8409 7.53709 30.6583 5.48623 29.9432 3.71859C32.2357 4.13364 33.3617 6.62885 33.8384 8.11817ZM28.8527 9.60748C26.8442 10.2081 24.6481 10.8624 22.4469 11.5167C23.0656 9.23637 24.2423 6.9609 25.6828 5.47158C26.2204 4.91492 26.971 4.29966 27.8586 3.94809C28.6955 5.62295 28.873 8.00097 28.8527 9.60748ZM24.7394 1.93629C25.4494 1.92164 26.0429 2.07302 26.5551 2.39529C25.7385 2.80058 24.9524 3.38654 24.2119 4.14829C22.2947 6.13079 20.8238 9.20219 20.2406 12.1711C18.4147 12.7131 16.6243 13.2502 14.981 13.7385C16.0157 9.07035 20.0833 2.06325 24.7394 1.93629Z" fill="#95BF47"/>
<path fill-rule="evenodd" clip-rule="evenodd" d="M47.7254 11.0627C47.4972 11.0431 43.0643 10.9796 43.0643 10.9796C43.0643 10.9796 39.3516 7.51272 38.9865 7.15626C38.8495 7.02442 38.6669 6.95606 38.4691 6.92676V59.9952L55.0949 56.0155C55.0949 56.0155 48.3087 11.8537 48.2681 11.551C48.2326 11.2482 47.9536 11.0822 47.7254 11.0627Z" fill="#5E8E3E"/>
<path fill-rule="evenodd" clip-rule="evenodd" d="M29.2534 19.2953L27.321 26.2536C27.321 26.2536 25.1654 25.3112 22.6142 25.4626C18.8712 25.6921 18.8306 27.9627 18.8661 28.534C19.069 31.6444 27.5695 32.3232 28.0513 39.6135C28.4267 45.3461 24.8915 49.2672 19.7993 49.5797C13.6876 49.9508 10.3199 46.479 10.3199 46.479L11.6132 41.176C11.6132 41.176 15.0013 43.6371 17.7097 43.4711C19.4798 43.3636 20.1138 41.9769 20.0478 40.9954C19.7841 36.9376 12.8559 37.1769 12.4197 30.5067C12.0494 24.8961 15.8787 19.2074 24.3286 18.6947C27.5898 18.4945 29.2534 19.2953 29.2534 19.2953Z" fill="white"/>
</svg>
