<svg width="51" height="60" viewBox="0 0 51 60" fill="none" xmlns="http://www.w3.org/2000/svg">
<path d="M9.09502 13.2764C13.1768 14.624 18.8598 15.4541 25.1703 15.4541C31.4809 15.4541 37.1786 14.6484 41.2604 13.2764C44.8432 12.0947 47.057 10.6641 47.057 9.2627C47.057 7.86133 44.8432 6.43555 41.2604 5.25391C37.1786 3.90625 31.4957 3.07129 25.1851 3.07129C18.8746 3.07129 13.1917 3.90625 9.09502 5.25391C1.50953 7.75879 1.29704 10.6982 9.09502 13.2764ZM39.7335 47.7002C40.2234 47.6944 40.704 47.8326 41.1142 48.0973C41.5244 48.362 41.8457 48.7413 42.0373 49.1868C42.2288 49.6324 42.282 50.1242 42.19 50.5997C42.0981 51.0752 41.8651 51.5129 41.5208 51.8573C41.1764 52.2017 40.7363 52.4371 40.2562 52.5337C39.7761 52.6303 39.2778 52.5837 38.8245 52.3998C38.3713 52.2159 37.9837 51.9031 37.7108 51.501C37.438 51.0989 37.2923 50.6257 37.2923 50.1416C37.2883 49.8224 37.3486 49.5056 37.4695 49.2095C37.5904 48.9135 37.7696 48.6441 37.9967 48.417C38.2238 48.1899 38.4942 48.0096 38.7924 47.8866C39.0905 47.7635 39.4104 47.7002 39.7335 47.7002ZM39.7335 34.0283C40.2164 34.0274 40.6888 34.1677 41.0912 34.4317C41.4936 34.6956 41.8078 35.0713 41.9945 35.5114C42.1811 35.9516 42.2316 36.4364 42.1398 36.9049C42.0479 37.3734 41.8178 37.8046 41.4784 38.144C41.1389 38.4835 40.7054 38.7161 40.2324 38.8125C39.7594 38.9089 39.2681 38.8648 38.8205 38.6857C38.3728 38.5067 37.9888 38.2007 37.7168 37.8063C37.4449 37.412 37.2972 36.9469 37.2923 36.4697C37.2883 36.1505 37.3486 35.8337 37.4695 35.5377C37.5904 35.2416 37.7696 34.9722 37.9967 34.7451C38.2238 34.518 38.4942 34.3377 38.7924 34.2147C39.0905 34.0916 39.4104 34.0283 39.7335 34.0283ZM39.7335 19.8047C40.2175 19.8037 40.6909 19.9447 41.0938 20.2096C41.4967 20.4746 41.811 20.8518 41.9969 21.2933C42.1828 21.7349 42.232 22.221 42.1381 22.6902C42.0443 23.1594 41.8117 23.5905 41.4698 23.929C41.1279 24.2675 40.6921 24.4982 40.2174 24.5919C39.7428 24.6855 39.2507 24.6379 38.8035 24.4552C38.3562 24.2724 37.9739 23.9626 37.7049 23.565C37.4359 23.1674 37.2923 22.6999 37.2923 22.2217C37.2949 21.5836 37.5532 20.9726 38.0108 20.5224C38.4683 20.0721 39.0877 19.8193 39.7335 19.8193V19.8047ZM47.0472 41.7773C45.5517 42.7442 43.9288 43.5032 42.2241 44.0332C37.8457 45.498 31.8268 46.3867 25.1851 46.3867C18.5435 46.3867 12.5245 45.498 8.10668 44.0479C6.41841 43.5229 4.80942 42.7757 3.32313 41.8262V51.0254C3.6048 52.334 5.75444 53.6475 9.09007 54.7461C13.1719 56.0938 18.8548 56.9287 25.1654 56.9287C31.4759 56.9287 37.1589 56.0938 41.2407 54.7461C43.7115 53.9307 45.535 52.998 46.4245 52.0361C47.1608 51.2402 47.0472 50.7178 47.0472 49.7705V41.792V41.7773ZM0.199982 9.27734C0.199982 6.39648 3.22924 3.96484 8.10668 2.34863C12.5245 0.898437 18.5583 0 25.1851 0C31.8119 0 37.8457 0.898437 42.2438 2.34863C46.6419 3.79883 49.6168 5.9668 50.111 8.50098C50.1708 8.66709 50.2009 8.84223 50.2 9.01855V51.3721C50.2 54.3018 44.522 56.9043 42.2587 57.6514C37.8606 59.1162 31.8268 60 25.2 60C18.5732 60 12.5245 59.082 8.10668 57.6514C5.78903 56.8896 0.199982 54.375 0.199982 51.3721V50.3955C0.223043 36.6846 0.223043 22.9785 0.199982 9.27734ZM3.34289 37.4219C3.62457 38.7305 5.7742 40.0391 9.09502 41.1426C13.1768 42.4902 18.8598 43.3252 25.1703 43.3252C31.4809 43.3252 37.1786 42.4805 41.2604 41.1426C44.8432 39.9609 47.057 38.5303 47.057 37.1338V28.1885C45.5575 29.1543 43.9315 29.9132 42.2241 30.4443C37.826 31.9092 31.7922 32.793 25.1654 32.793C18.5386 32.793 12.5245 31.8945 8.10668 30.4443C6.42526 29.9178 4.82302 29.1706 3.34289 28.2227V37.4219ZM3.34289 23.8184C3.62457 25.127 5.7742 26.4404 9.10984 27.5391C13.1917 28.8867 18.8746 29.7217 25.1851 29.7217C31.4957 29.7217 37.1786 28.8867 41.2604 27.5391C44.8432 26.3574 47.057 24.9268 47.057 23.5303V13.9258C45.5564 14.8897 43.9307 15.6485 42.2241 16.1816C37.8457 17.6318 31.8268 18.5547 25.1851 18.5547C18.5435 18.5547 12.5245 17.6318 8.10668 16.1816C6.41815 15.6552 4.80915 14.9063 3.32313 13.9551V23.8184H3.34289Z" fill="black"/>
</svg>
