<svg width="178" height="177" viewBox="0 0 178 177" fill="none" xmlns="http://www.w3.org/2000/svg">
<path d="M68.6048 164.682L70.3394 164.987C70.354 165.505 70.4562 165.974 70.6461 166.397C70.8313 166.819 71.0831 167.191 71.4016 167.511C71.7146 167.836 72.0788 168.102 72.4941 168.31C72.9094 168.518 73.3548 168.664 73.8304 168.747C74.6977 168.9 75.5221 168.82 76.3035 168.506C77.0802 168.191 77.7513 167.643 78.3167 166.863C78.8775 166.082 79.2673 165.071 79.486 163.831C79.7047 162.591 79.6841 161.508 79.4242 160.582C79.1597 159.655 78.7164 158.911 78.0942 158.35C77.4674 157.787 76.7203 157.43 75.853 157.277C75.3774 157.193 74.9089 157.177 74.4476 157.231C73.9863 157.284 73.5535 157.407 73.1492 157.6C72.7395 157.797 72.3754 158.063 72.057 158.396C71.7331 158.733 71.4763 159.14 71.2866 159.616L69.552 159.31C69.8116 158.601 70.1649 157.988 70.6119 157.47C71.0589 156.953 71.5747 156.537 72.1591 156.221C72.7428 155.911 73.3725 155.707 74.0483 155.61C74.7195 155.512 75.4164 155.526 76.1392 155.654C77.3608 155.869 78.3947 156.359 79.2407 157.124C80.0867 157.889 80.6854 158.869 81.0369 160.066C81.3885 161.262 81.431 162.616 81.1646 164.127C80.8983 165.638 80.3953 166.895 79.6557 167.899C78.9161 168.904 78.018 169.62 76.9615 170.05C75.9051 170.479 74.766 170.586 73.5443 170.37C72.8215 170.243 72.1616 170.018 71.5644 169.696C70.9626 169.374 70.441 168.965 69.9996 168.469C69.5574 167.977 69.2148 167.412 68.9716 166.773C68.7277 166.138 68.6054 165.441 68.6048 164.682Z" fill="white"/>
<path d="M67.3672 153.63L63.6361 163.881L62.1144 163.328L62.678 161.779L62.5712 161.74C62.1997 162.18 61.7118 162.468 61.1074 162.606C60.503 162.744 59.8938 162.701 59.2797 162.477C59.1641 162.435 59.0203 162.38 58.8484 162.313C58.6765 162.245 58.5476 162.191 58.4619 162.149L59.0449 160.548C59.0934 160.58 59.2085 160.645 59.3901 160.741C59.5656 160.84 59.7579 160.928 59.9671 161.004C60.4654 161.186 60.9484 161.243 61.416 161.176C61.8776 161.113 62.2883 160.94 62.648 160.657C63.0016 160.378 63.2626 160.007 63.431 159.544L65.7921 153.057L67.3672 153.63Z" fill="white"/>
<path d="M54.2764 147.459C55.1867 147.984 55.8559 148.639 56.2841 149.422C56.7058 150.206 56.8855 151.065 56.8232 151.996C56.7545 152.93 56.4407 153.88 55.882 154.848C55.3233 155.816 54.6546 156.567 53.8758 157.101C53.0905 157.638 52.2606 157.929 51.3859 157.977C50.5047 158.026 49.6377 157.804 48.7848 157.311C48.2927 157.027 47.8542 156.665 47.4691 156.224C47.084 155.783 46.8012 155.264 46.6206 154.668C46.4377 154.075 46.4034 153.411 46.5177 152.673C46.6319 151.935 46.9436 151.125 47.4526 150.244L47.8077 149.629L55.0902 153.833L54.3657 155.088L48.5594 151.736C48.2517 152.269 48.0837 152.806 48.0554 153.347C48.0231 153.886 48.1318 154.389 48.3817 154.856C48.6275 155.321 49.0128 155.704 49.5376 156.007C50.1158 156.341 50.6989 156.486 51.287 156.443C51.8686 156.402 52.4036 156.219 52.8919 155.894C53.3802 155.569 53.7747 155.146 54.0753 154.625L54.5583 153.789C54.9702 153.075 55.1964 152.399 55.2368 151.761C55.2708 151.125 55.1409 150.549 54.8472 150.035C54.5511 149.525 54.1099 149.101 53.5235 148.763C53.1422 148.543 52.767 148.397 52.3979 148.326C52.0223 148.257 51.659 148.266 51.308 148.353C50.9547 148.444 50.6218 148.618 50.3094 148.875L49.1343 147.672C49.5565 147.281 50.0461 147.006 50.603 146.847C51.1575 146.691 51.749 146.661 52.3776 146.756C53.0038 146.855 53.6367 147.089 54.2764 147.459Z" fill="white"/>
<path d="M45.406 141.277C45.9355 141.722 46.3324 142.225 46.5967 142.786C46.8579 143.352 46.9556 143.931 46.8899 144.525C46.8212 145.123 46.5586 145.693 46.1021 146.237C45.7003 146.716 45.2804 147.025 44.8422 147.164C44.401 147.307 43.9511 147.331 43.4925 147.237C43.0339 147.143 42.5791 146.977 42.1283 146.741C41.6708 146.506 41.2267 146.251 40.796 145.976C40.2334 145.615 39.7806 145.318 39.4377 145.086C39.088 144.855 38.8057 144.72 38.5906 144.681C38.3719 144.64 38.1758 144.723 38.0023 144.93L37.9658 144.973C37.5154 145.51 37.3123 146.05 37.3565 146.594C37.3971 147.135 37.713 147.654 38.3042 148.15C38.9172 148.664 39.5104 148.933 40.0838 148.957C40.6572 148.981 41.1425 148.9 41.5396 148.714L42.3931 150.171C41.7494 150.497 41.1275 150.648 40.5274 150.627C39.9206 150.606 39.3542 150.471 38.8283 150.221C38.2956 149.972 37.8189 149.671 37.3982 149.318C37.1298 149.093 36.8488 148.801 36.5554 148.444C36.2553 148.087 36.0243 147.674 35.8622 147.204C35.6964 146.731 35.6706 146.206 35.7848 145.628C35.8989 145.05 36.2344 144.429 36.7914 143.765L41.4114 138.259L42.6954 139.337L41.7458 140.468L41.8111 140.523C42.0503 140.415 42.3583 140.342 42.7349 140.306C43.1115 140.27 43.5293 140.321 43.9883 140.459C44.4474 140.596 44.9199 140.869 45.406 141.277ZM44.2423 142.266C43.7345 141.84 43.2228 141.581 42.7072 141.488C42.188 141.392 41.7071 141.428 41.2646 141.594C40.8185 141.758 40.4493 142.013 40.1571 142.362L39.171 143.537C39.2802 143.517 39.4501 143.558 39.6808 143.658C39.9047 143.76 40.1531 143.891 40.426 144.052C40.6922 144.214 40.9499 144.374 41.1991 144.534C41.4417 144.694 41.6395 144.823 41.7926 144.921C42.1628 145.157 42.5341 145.348 42.9064 145.494C43.2721 145.64 43.6244 145.691 43.9635 145.648C44.2958 145.606 44.599 145.421 44.8729 145.095C45.2472 144.649 45.3652 144.173 45.2269 143.667C45.0819 143.162 44.7537 142.695 44.2423 142.266Z" fill="white"/>
<path d="M25.9974 137.382L27.0855 136.468L30.7195 140.799L29.6313 141.712L25.9974 137.382ZM26.57 142.13L25.4926 140.846L33.4577 134.163C33.8205 133.858 34.0484 133.577 34.1414 133.32C34.2279 133.062 34.2319 132.824 34.1536 132.605C34.0686 132.386 33.9469 132.182 33.7887 131.994C33.67 131.852 33.5653 131.742 33.4747 131.664C33.3805 131.588 33.3051 131.528 33.2486 131.482L34.1829 130.253C34.2886 130.313 34.4232 130.407 34.5867 130.536C34.7538 130.661 34.9378 130.844 35.1387 131.083C35.443 131.446 35.6633 131.867 35.7995 132.346C35.9327 132.821 35.9356 133.307 35.8081 133.804C35.6776 134.296 35.3694 134.747 34.8833 135.154L26.57 142.13Z" fill="white"/>
<path d="M29.3256 122.837L19.878 128.292L19.04 126.84L28.4875 121.386L29.3256 122.837ZM17.8773 128.463C18.0407 128.746 18.0852 129.045 18.0108 129.362C17.9341 129.674 17.7604 129.908 17.4898 130.064C17.2192 130.22 16.9295 130.254 16.6207 130.164C16.3096 130.07 16.0724 129.882 15.9091 129.599C15.7457 129.316 15.7024 129.019 15.7791 128.706C15.8535 128.39 16.026 128.154 16.2966 127.998C16.5672 127.841 16.8581 127.81 17.1692 127.904C17.4779 127.993 17.714 128.18 17.8773 128.463Z" fill="white"/>
<path d="M12.15 110.781L23.781 110.84L24.364 112.442L15.4925 119.964L14.8706 118.256L22.0096 112.453L21.9708 112.346L12.7719 112.489L12.15 110.781Z" fill="white"/>
<path d="M21.134 99.7026C21.3165 100.738 21.2455 101.671 20.9209 102.502C20.5908 103.33 20.0489 104.019 19.2951 104.57C18.5358 105.118 17.6059 105.488 16.5055 105.682C15.405 105.876 14.3998 105.847 13.4897 105.594C12.5742 105.337 11.8173 104.889 11.2189 104.249C10.615 103.606 10.2275 102.799 10.0565 101.829C9.95787 101.269 9.95369 100.7 10.044 100.122C10.1343 99.5435 10.3499 98.9934 10.6906 98.4718C11.0267 97.951 11.514 97.4973 12.1526 97.1106C12.7911 96.724 13.6117 96.4422 14.6142 96.2655L15.3137 96.1421L16.7739 104.423L15.347 104.675L14.1828 98.0724C13.5766 98.1793 13.0571 98.3959 12.6242 98.7222C12.1906 99.0439 11.8752 99.4505 11.6782 99.942C11.4804 100.429 11.4341 100.971 11.5393 101.567C11.6553 102.225 11.9188 102.765 12.3299 103.188C12.7355 103.607 13.2197 103.899 13.7825 104.064C14.3453 104.229 14.9228 104.259 15.515 104.155L16.4662 103.987C17.2776 103.844 17.9407 103.583 18.4556 103.204C18.9649 102.821 19.3221 102.351 19.5271 101.796C19.7274 101.242 19.7688 100.631 19.6512 99.964C19.5747 99.5304 19.445 99.1494 19.2621 98.8211C19.0738 98.4889 18.8334 98.2163 18.541 98.0035C18.244 97.7914 17.8967 97.6483 17.499 97.5742L17.6654 95.9006C18.2359 95.973 18.7613 96.1713 19.2415 96.4953C19.717 96.8201 20.1205 97.2538 20.4517 97.7964C20.7783 98.3398 21.0057 98.9752 21.134 99.7026Z" fill="white"/>
<path d="M20.1633 80.5809L5.14817 81.972L5.45896 80.2094L17.6534 79.273L17.6781 79.1331L6.54919 74.0264L6.89452 72.068L19.0988 71.0756L19.1235 70.9357L7.98475 65.8849L8.29554 64.1224L21.9294 70.565L21.6136 72.3556L9.64138 73.5043L9.62165 73.6162L20.479 78.7904L20.1633 80.5809Z" fill="white"/>
<path d="M24.385 64.2517C24.0255 65.2394 23.4974 66.0121 22.8006 66.5697C22.101 67.1213 21.287 67.4473 20.3586 67.5478C19.4274 67.6421 18.4367 67.4982 17.3867 67.1161C16.3367 66.7339 15.4808 66.2057 14.8192 65.5316C14.1548 64.8514 13.7234 64.0847 13.525 63.2315C13.3238 62.3722 13.3916 61.4798 13.7285 60.5544C13.9228 60.0205 14.2037 59.5256 14.5711 59.0698C14.9386 58.614 15.4003 58.2454 15.9562 57.9641C16.5076 57.6811 17.1565 57.5318 17.9029 57.5162C18.6492 57.5007 19.5007 57.667 20.4573 58.0151L21.1247 58.2581L18.2486 66.16L16.8871 65.6645L19.1802 59.3643C18.6018 59.1537 18.0436 59.0816 17.5055 59.1478C16.9691 59.2095 16.4927 59.4039 16.0764 59.7311C15.6617 60.0538 15.3506 60.4999 15.1434 61.0694C14.915 61.6967 14.8732 62.2962 15.0178 62.8678C15.1597 63.4334 15.433 63.9284 15.8378 64.3529C16.2426 64.7774 16.7275 65.0924 17.2926 65.2981L18.2002 65.6285C18.9744 65.9102 19.6793 66.0156 20.3148 65.9446C20.9475 65.8675 21.4914 65.6397 21.9466 65.2612C22.3974 64.8811 22.7386 64.3729 22.9701 63.7367C23.1207 63.3229 23.1989 62.9281 23.2047 62.5523C23.2077 62.1704 23.1358 61.8142 22.989 61.4837C22.8378 61.1515 22.6085 60.8539 22.3012 60.5909L23.2821 59.2247C23.74 59.5727 24.0958 60.0071 24.3497 60.5278C24.5992 61.0469 24.7317 61.6242 24.7473 62.2597C24.7584 62.8936 24.6376 63.5576 24.385 64.2517Z" fill="white"/>
<path d="M27.1813 56.964L14.5846 49.6913L15.4227 48.2397L20.0726 50.9244L20.1436 50.8014C20.0412 50.6001 19.9173 50.3317 19.772 49.9963C19.6249 49.6544 19.5539 49.2471 19.5589 48.7744C19.5622 48.2952 19.7414 47.748 20.0966 47.1329C20.5558 46.3375 21.1595 45.7511 21.9077 45.3739C22.6558 44.9966 23.4931 44.8485 24.4194 44.9296C25.3458 45.0107 26.3052 45.3376 27.2975 45.9106C28.298 46.4882 29.067 47.1591 29.6045 47.9232C30.1379 48.6849 30.4315 49.4832 30.4854 50.318C30.5351 51.1504 30.3327 51.9603 29.8781 52.7475C29.5278 53.3544 29.1468 53.7823 28.7351 54.0313C28.3194 54.2778 27.9256 54.425 27.5536 54.4726C27.1775 54.518 26.8726 54.5442 26.6388 54.5514L26.5394 54.7236L27.991 55.5617L27.1813 56.964ZM23.2814 52.8098C23.9949 53.2217 24.6847 53.4806 25.3508 53.5863C26.0128 53.6897 26.6136 53.6292 27.1531 53.4049C27.6886 53.1783 28.1244 52.7738 28.4606 52.1915C28.8109 51.5847 28.9434 50.9859 28.8579 50.3953C28.7707 49.7982 28.5136 49.2397 28.0866 48.7199C27.6579 48.1935 27.1073 47.7362 26.4348 47.3479C25.7705 46.9644 25.1127 46.7213 24.4612 46.6185C23.8081 46.5093 23.2073 46.5698 22.6589 46.7999C22.1088 47.0236 21.6562 47.4429 21.3011 48.058C20.9602 48.6485 20.8234 49.2311 20.8907 49.8057C20.9539 50.378 21.1929 50.9206 21.6076 51.4334C22.0182 51.9438 22.5761 52.4026 23.2814 52.8098Z" fill="white"/>
<path d="M44.2244 35.4678L40.7859 38.353L31.4362 27.2105L35.0271 24.1975C36.1079 23.2905 37.22 22.7375 38.3633 22.5384C39.5036 22.3357 40.6271 22.4777 41.7339 22.9644C42.8377 23.4474 43.8735 24.2657 44.8414 25.4191C45.8153 26.5798 46.447 27.7525 46.7366 28.9373C47.0231 30.1185 46.9597 31.2657 46.5464 32.379C46.13 33.4886 45.356 34.5182 44.2244 35.4678ZM41.1308 36.0239L43.133 34.3439C44.0542 33.5708 44.6686 32.7524 44.9761 31.8887C45.2835 31.025 45.3106 30.1401 45.0571 29.234C44.8037 28.3279 44.2965 27.4215 43.5356 26.5147C42.7808 25.6152 41.9841 24.9641 41.1456 24.5614C40.3039 24.155 39.445 24.0227 38.5689 24.1645C37.6897 24.3027 36.8149 24.737 35.9444 25.4675L33.7899 27.2753L41.1308 36.0239Z" fill="white"/>
<path d="M54.7746 28.3409C53.8643 28.8664 52.963 29.1189 52.0708 29.0982C51.1804 29.071 50.3473 28.7975 49.5715 28.2777C48.7975 27.7514 48.1311 27.0044 47.5724 26.0367C47.0136 25.069 46.6975 24.1143 46.6241 23.1726C46.5523 22.2244 46.7146 21.3598 47.1111 20.5787C47.5093 19.7911 48.1349 19.1511 48.9878 18.6587C49.4798 18.3746 50.0131 18.1761 50.5875 18.0631C51.162 17.9501 51.7526 17.9645 52.3593 18.1063C52.9636 18.244 53.5567 18.5467 54.1384 19.0146C54.7202 19.4824 55.2655 20.1571 55.7745 21.0387L56.1297 21.6538L48.8472 25.8583L48.1227 24.6036L53.929 21.2513C53.6213 20.7183 53.24 20.3041 52.7853 20.009C52.3347 19.7115 51.8448 19.5542 51.3156 19.5372C50.7905 19.5178 50.2655 19.6596 49.7406 19.9627C49.1624 20.2965 48.745 20.7288 48.4884 21.2597C48.2335 21.7841 48.1247 22.339 48.1619 22.9243C48.1992 23.5097 48.3682 24.0628 48.6688 24.5835L49.1518 25.42C49.5637 26.1335 50.0359 26.6673 50.5684 27.0214C51.1026 27.3691 51.6657 27.5442 52.2577 27.5469C52.8474 27.5454 53.4354 27.3754 54.0218 27.0369C54.4031 26.8167 54.7168 26.5646 54.9627 26.2804C55.2105 25.9898 55.3844 25.6707 55.4844 25.3231C55.5821 24.9715 55.5977 24.5961 55.5314 24.1971L57.161 23.7811C57.288 24.342 57.2814 24.9034 57.1412 25.4655C56.9986 26.0235 56.7291 26.5509 56.3325 27.0478C55.9336 27.5405 55.4143 27.9715 54.7746 28.3409Z" fill="white"/>
<path d="M66.1747 11.2818L66.115 22.9127L64.5133 23.4957L56.9913 14.6243L58.6999 14.0024L64.5029 21.1414L64.6096 21.1025L64.4662 11.9036L66.1747 11.2818Z" fill="white"/>
<path d="M77.2529 20.2658C76.2177 20.4483 75.2845 20.3772 74.4532 20.0527C73.6257 19.7226 72.9364 19.1806 72.3852 18.4268C71.8378 17.6675 71.4671 16.7377 71.2731 15.6372C71.079 14.5368 71.1085 13.5315 71.3615 12.6215C71.6184 11.706 72.0667 10.949 72.7064 10.3506C73.3499 9.74675 74.1566 9.3593 75.1265 9.18828C75.6861 9.08962 76.2551 9.08545 76.8335 9.17577C77.412 9.26609 77.962 9.48161 78.4837 9.82234C79.0045 10.1584 79.4582 10.6457 79.8449 11.2843C80.2315 11.9229 80.5132 12.7435 80.69 13.746L80.8133 14.4454L72.532 15.9056L72.2804 14.4788L78.8831 13.3146C78.7762 12.7084 78.5596 12.1889 78.2332 11.756C77.9116 11.3223 77.505 11.007 77.0135 10.81C76.5267 10.6121 75.9848 10.5659 75.388 10.6711C74.7305 10.787 74.1904 11.0505 73.7677 11.4616C73.3488 11.8672 73.0568 12.3514 72.8916 12.9142C72.7264 13.477 72.696 14.0545 72.8004 14.6467L72.9681 15.598C73.1112 16.4093 73.3724 17.0724 73.7516 17.5873C74.1347 18.0967 74.604 18.4539 75.1594 18.6588C75.7139 18.8592 76.3246 18.9005 76.9914 18.7829C77.4251 18.7065 77.8061 18.5768 78.1344 18.3939C78.4666 18.2055 78.7391 17.9651 78.952 17.6728C79.1641 17.3758 79.3071 17.0284 79.3813 16.6307L81.0549 16.7972C80.9824 17.3677 80.7842 17.893 80.4602 18.3732C80.1354 18.8488 79.7017 19.2522 79.1591 19.5835C78.6157 19.9101 77.9803 20.1375 77.2529 20.2658Z" fill="white"/>
<path d="M90.249 4.49815V19.0436H88.5729V4.49815L90.249 4.49815Z" fill="white"/>
<path d="M100.853 20.3155C99.8834 20.1445 99.0731 19.7637 98.4224 19.1729C97.7764 18.5831 97.3214 17.8369 97.0574 16.9346C96.7981 16.033 96.7663 15.0274 96.9619 13.9176C97.1593 12.7985 97.5344 11.8574 98.0872 11.0943C98.6447 10.332 99.3279 9.78413 100.137 9.45077C100.95 9.11822 101.842 9.03746 102.812 9.20848C103.782 9.37949 104.59 9.75995 105.236 10.3498C105.886 10.9406 106.341 11.689 106.599 12.5952C106.863 13.5022 106.895 14.5153 106.698 15.6344C106.502 16.7441 106.126 17.6779 105.57 18.4355C105.018 19.194 104.335 19.7395 103.521 20.072C102.712 20.4054 101.823 20.4866 100.853 20.3155ZM101.115 18.8327C101.851 18.9626 102.491 18.8807 103.033 18.5868C103.575 18.293 104.015 17.8585 104.352 17.2833C104.689 16.7081 104.921 16.0614 105.047 15.3433C105.174 14.6252 105.178 13.936 105.059 13.2755C104.94 12.615 104.676 12.0517 104.268 11.5855C103.859 11.1193 103.287 10.8212 102.55 10.6913C101.814 10.5614 101.174 10.6457 100.631 10.9442C100.088 11.2427 99.6471 11.6818 99.3093 12.2617C98.9715 12.8416 98.7392 13.4906 98.6126 14.2087C98.486 14.9268 98.4827 15.6137 98.6026 16.2695C98.7226 16.9253 98.987 17.484 99.3961 17.9455C99.8051 18.4071 100.378 18.7028 101.115 18.8327Z" fill="white"/>
<path d="M107.297 25.6605L112.428 11.5651L113.949 12.119L113.357 13.7474L113.543 13.8154C113.724 13.6796 113.967 13.511 114.272 13.3096C114.583 13.1054 114.972 12.9647 115.438 12.8876C115.911 12.8077 116.48 12.8891 117.148 13.1321C118.011 13.4462 118.693 13.9389 119.195 14.6102C119.696 15.2814 119.987 16.0803 120.068 17.0066C120.149 17.933 119.994 18.9346 119.602 20.0113C119.207 21.097 118.68 21.9708 118.021 22.6328C117.363 23.2904 116.628 23.7181 115.815 23.9161C115.004 24.1096 114.171 24.0509 113.317 23.74C112.659 23.5003 112.171 23.1994 111.854 22.8373C111.539 22.4707 111.326 22.1084 111.215 21.7503C111.105 21.3878 111.026 21.0921 110.978 20.8631L110.845 20.8146L108.872 26.2338L107.297 25.6605ZM112.11 17.2543C111.829 18.0285 111.693 18.7527 111.705 19.4271C111.718 20.097 111.882 20.6781 112.197 21.1705C112.513 21.6585 112.987 22.0174 113.619 22.2474C114.277 22.4871 114.89 22.5135 115.456 22.3268C116.029 22.1373 116.535 21.7871 116.973 21.2763C117.416 20.7627 117.771 20.141 118.037 19.4114C118.299 18.6906 118.424 18.0005 118.412 17.3411C118.407 16.6789 118.243 16.0977 117.921 15.5977C117.605 15.0947 117.113 14.7218 116.446 14.4789C115.805 14.2457 115.208 14.2122 114.654 14.3783C114.101 14.5399 113.608 14.8695 113.175 15.3669C112.744 15.8599 112.389 16.489 112.11 17.2543Z" fill="white"/>
<path d="M123.547 28.6285C122.637 28.1029 121.968 27.4486 121.54 26.6656C121.118 25.8809 120.938 25.0227 121 24.0909C121.069 23.1574 121.383 22.2068 121.942 21.2391C122.5 20.2714 123.169 19.5203 123.948 18.9858C124.733 18.4496 125.563 18.1578 126.438 18.1106C127.319 18.0617 128.186 18.2835 129.039 18.7759C129.531 19.06 129.97 19.4225 130.355 19.8635C130.74 20.3045 131.022 20.8232 131.203 21.4195C131.386 22.0117 131.42 22.6767 131.306 23.4144C131.192 24.1521 130.88 24.9618 130.371 25.8434L130.016 26.4585L122.734 22.2539L123.458 20.9992L129.264 24.3515C129.572 23.8184 129.74 23.2812 129.768 22.7398C129.801 22.2008 129.692 21.6979 129.442 21.2311C129.196 20.7666 128.811 20.3829 128.286 20.0798C127.708 19.746 127.125 19.6007 126.537 19.6439C125.955 19.6854 125.42 19.8686 124.932 20.1935C124.444 20.5185 124.049 20.9413 123.748 21.4621L123.265 22.2986C122.853 23.0121 122.627 23.6879 122.587 24.3261C122.553 24.9626 122.683 25.5378 122.976 26.0519C123.273 26.5618 123.714 26.986 124.3 27.3245C124.682 27.5447 125.057 27.6903 125.426 27.7612C125.801 27.8304 126.165 27.8215 126.516 27.7344C126.869 27.6431 127.202 27.469 127.514 27.212L128.689 28.4153C128.267 28.8057 127.778 29.0808 127.221 29.2404C126.666 29.3959 126.075 29.4261 125.446 29.3311C124.82 29.232 124.187 28.9978 123.547 28.6285Z" fill="white"/>
<path d="M131.589 33.781L138.601 25.4242L139.842 26.465L138.783 27.7273L138.87 27.8003C139.369 27.5147 139.926 27.4105 140.541 27.4877C141.156 27.565 141.714 27.8136 142.215 28.2336C142.309 28.3127 142.425 28.4135 142.564 28.5358C142.702 28.6581 142.805 28.7533 142.871 28.8215L141.775 30.1272C141.741 30.0798 141.655 29.9798 141.517 29.8272C141.386 29.674 141.236 29.5258 141.065 29.3828C140.659 29.0419 140.225 28.8228 139.762 28.7254C139.307 28.6275 138.862 28.6496 138.427 28.7918C137.999 28.9335 137.627 29.1929 137.311 29.5701L132.873 34.8584L131.589 33.781Z" fill="white"/>
<path d="M156.34 45.028L155.187 45.8578L151.751 41.085L152.904 40.2552L156.34 45.028ZM145.079 48.0578L155.155 40.8051C155.662 40.44 156.171 40.2549 156.681 40.2497C157.19 40.2445 157.666 40.3713 158.109 40.6301C158.552 40.8888 158.926 41.2295 159.23 41.6522C159.471 41.9866 159.64 42.2788 159.739 42.5289C159.837 42.7789 159.9 42.9725 159.929 43.1094L158.471 43.5639C158.444 43.4781 158.404 43.3613 158.35 43.2134C158.299 43.0694 158.203 42.8994 158.062 42.7034C157.738 42.2538 157.391 42.0107 157.02 41.974C156.653 41.9412 156.25 42.0825 155.811 42.3978L146.058 49.4181L145.079 48.0578Z" fill="white"/>
<path d="M151.291 54.8867L161.117 50.1479L161.821 51.6065L160.337 52.3222L160.386 52.4246C160.959 52.3693 161.509 52.5031 162.039 52.8262C162.568 53.1493 162.974 53.6052 163.258 54.1937C163.311 54.3046 163.376 54.4442 163.452 54.6126C163.528 54.781 163.582 54.9099 163.615 54.9993L162.079 55.7397C162.068 55.6824 162.03 55.5558 161.967 55.3601C161.911 55.1666 161.834 54.9696 161.738 54.7692C161.507 54.2915 161.201 53.9134 160.82 53.6347C160.445 53.3583 160.03 53.1956 159.575 53.1468C159.127 53.1001 158.681 53.1838 158.238 53.3977L152.019 56.3964L151.291 54.8867Z" fill="white"/>
<path d="M155.222 65.9918C154.954 65.0439 154.945 64.1486 155.195 63.3059C155.446 62.4678 155.92 61.7339 156.618 61.1041C157.317 60.4789 158.209 60.0134 159.294 59.7076C160.388 59.3992 161.398 59.3283 162.326 59.4948C163.255 59.6658 164.045 60.0432 164.697 60.6269C165.349 61.2151 165.81 61.9832 166.077 62.9311C166.344 63.879 166.352 64.772 166.102 65.6101C165.852 66.4528 165.376 67.1874 164.672 67.8139C163.969 68.4449 163.071 68.9146 161.977 69.223C160.892 69.5288 159.888 69.5955 158.964 69.4232C158.041 69.2555 157.253 68.8775 156.6 68.2892C155.948 67.7055 155.489 66.9397 155.222 65.9918ZM156.671 65.5832C156.874 66.3032 157.225 66.8436 157.726 67.2044C158.226 67.5651 158.808 67.7723 159.473 67.826C160.137 67.8797 160.82 67.8076 161.522 67.6098C162.224 67.4119 162.846 67.1158 163.39 66.7216C163.933 66.3274 164.326 65.8453 164.568 65.2751C164.811 64.7049 164.831 64.0597 164.628 63.3397C164.425 62.6197 164.071 62.0799 163.566 61.7205C163.061 61.361 162.474 61.1551 161.805 61.1027C161.136 61.0502 160.451 61.123 159.749 61.3209C159.047 61.5187 158.427 61.8141 157.888 62.207C157.35 62.6 156.961 63.0809 156.723 63.6498C156.485 64.2187 156.468 64.8632 156.671 65.5832Z" fill="white"/>
<path d="M157.159 72.7357L168.014 71.6435L168.176 73.2547L166.48 73.4253L166.494 73.5667C167.096 73.7345 167.583 74.0543 167.954 74.5262C168.33 74.9975 168.553 75.5866 168.624 76.2932C168.696 77.0093 168.594 77.6216 168.317 78.1301C168.045 78.6429 167.632 79.0627 167.08 79.3895L167.091 79.5026C167.68 79.7241 168.167 80.0963 168.553 80.619C168.943 81.1412 169.178 81.791 169.256 82.5683C169.353 83.5388 169.129 84.3632 168.584 85.0415C168.043 85.7193 167.134 86.1225 165.857 86.251L158.593 86.982L158.425 85.3142L165.69 84.5832C166.49 84.5027 167.041 84.226 167.341 83.7533C167.64 83.2805 167.76 82.7474 167.701 82.1538C167.624 81.3906 167.334 80.8226 166.83 80.4497C166.331 80.0764 165.73 79.9251 165.028 79.9957L157.961 80.7068L157.791 79.0108L165.225 78.2628C165.842 78.2007 166.319 77.9505 166.655 77.5121C166.997 77.0732 167.136 76.5382 167.072 75.9069C167.029 75.4735 166.872 75.08 166.604 74.7263C166.335 74.3774 165.985 74.1081 165.551 73.9185C165.124 73.7331 164.643 73.6672 164.111 73.7208L157.327 74.4034L157.159 72.7357Z" fill="white"/>
<path d="M155.794 102.133L169.811 106.021L168.497 110.757C168.193 111.852 167.757 112.699 167.188 113.298C166.623 113.898 165.97 114.277 165.229 114.435C164.487 114.593 163.704 114.557 162.878 114.328C162.052 114.099 161.366 113.727 160.821 113.213C160.276 112.698 159.918 112.041 159.747 111.241C159.58 110.443 159.647 109.501 159.948 108.415L161.011 104.583L162.544 105.008L161.496 108.786C161.289 109.534 161.231 110.167 161.324 110.684C161.415 111.205 161.633 111.625 161.977 111.941C162.325 112.264 162.78 112.503 163.341 112.658C163.902 112.814 164.422 112.845 164.9 112.752C165.378 112.658 165.795 112.413 166.151 112.015C166.511 111.619 166.796 111.042 167.006 110.285L167.834 107.301L155.324 103.831L155.794 102.133ZM160.261 110.477L153.008 112.18L153.554 110.209L160.792 108.561L160.261 110.477Z" fill="white"/>
<path d="M150.921 118.484C151.352 117.599 151.942 116.925 152.689 116.463C153.434 116.005 154.277 115.773 155.217 115.768C156.155 115.767 157.131 116.014 158.144 116.508C159.165 117.006 159.966 117.626 160.547 118.368C161.126 119.114 161.464 119.922 161.562 120.791C161.657 121.665 161.489 122.544 161.057 123.43C160.625 124.315 160.037 124.986 159.292 125.445C158.544 125.907 157.7 126.138 156.757 126.137C155.813 126.139 154.83 125.892 153.809 125.393C152.796 124.899 152.002 124.28 151.427 123.536C150.851 122.796 150.514 121.99 150.419 121.116C150.322 120.247 150.489 119.369 150.921 118.484ZM152.274 119.145C151.946 119.817 151.848 120.454 151.981 121.056C152.114 121.659 152.411 122.201 152.871 122.684C153.331 123.166 153.888 123.567 154.544 123.887C155.199 124.207 155.86 124.4 156.528 124.468C157.196 124.536 157.81 124.437 158.371 124.174C158.932 123.91 159.376 123.442 159.704 122.769C160.032 122.097 160.127 121.459 159.99 120.854C159.853 120.25 159.552 119.706 159.088 119.221C158.624 118.736 158.064 118.334 157.409 118.014C156.753 117.695 156.094 117.502 155.43 117.437C154.767 117.371 154.157 117.471 153.601 117.737C153.044 118.003 152.602 118.472 152.274 119.145Z" fill="white"/>
<path d="M147.762 124.671L156.43 131.295L155.446 132.581L154.092 131.546L154.006 131.659C154.33 132.194 154.467 132.76 154.415 133.358C154.367 133.959 154.127 134.541 153.696 135.105C153.259 135.677 152.766 136.054 152.216 136.236C151.667 136.424 151.079 136.448 150.452 136.309L150.383 136.399C150.661 136.963 150.762 137.568 150.686 138.213C150.614 138.861 150.341 139.496 149.866 140.116C149.274 140.891 148.547 141.34 147.685 141.462C146.827 141.587 145.888 141.259 144.869 140.48L139.068 136.047L140.085 134.715L145.886 139.148C146.526 139.637 147.117 139.812 147.659 139.672C148.201 139.532 148.653 139.225 149.015 138.751C149.481 138.141 149.657 137.528 149.545 136.912C149.436 136.298 149.101 135.777 148.54 135.349L142.897 131.036L143.932 129.682L149.869 134.218C150.362 134.595 150.881 134.739 151.426 134.649C151.975 134.562 152.442 134.266 152.828 133.762C153.092 133.416 153.247 133.022 153.293 132.58C153.336 132.142 153.264 131.706 153.077 131.272C152.892 130.844 152.587 130.467 152.161 130.143L146.744 126.002L147.762 124.671Z" fill="white"/>
<path d="M133.782 140.132C134.312 139.688 134.876 139.385 135.475 139.222C136.077 139.063 136.665 139.067 137.238 139.235C137.815 139.406 138.331 139.764 138.788 140.308C139.189 140.787 139.421 141.254 139.482 141.71C139.546 142.169 139.491 142.617 139.319 143.052C139.146 143.487 138.905 143.906 138.594 144.309C138.282 144.719 137.954 145.112 137.609 145.488C137.156 145.98 136.785 146.374 136.497 146.672C136.208 146.976 136.026 147.23 135.951 147.435C135.872 147.644 135.92 147.851 136.093 148.058L136.13 148.101C136.58 148.638 137.077 148.932 137.62 148.983C138.16 149.037 138.726 148.816 139.317 148.32C139.93 147.805 140.298 147.268 140.421 146.707C140.544 146.147 140.548 145.655 140.434 145.231L142.018 144.644C142.226 145.334 142.268 145.973 142.143 146.561C142.017 147.154 141.785 147.689 141.448 148.163C141.11 148.645 140.731 149.062 140.31 149.415C140.042 149.64 139.706 149.866 139.303 150.093C138.899 150.327 138.452 150.482 137.961 150.56C137.467 150.642 136.945 150.576 136.396 150.363C135.846 150.15 135.293 149.712 134.736 149.048L130.116 143.542L131.4 142.465L132.35 143.597L132.415 143.542C132.35 143.287 132.332 142.972 132.362 142.594C132.391 142.217 132.514 141.815 132.73 141.386C132.945 140.958 133.296 140.54 133.782 140.132ZM134.554 141.45C134.046 141.876 133.702 142.335 133.521 142.827C133.337 143.322 133.288 143.801 133.375 144.266C133.458 144.734 133.646 145.142 133.938 145.49L134.924 146.665C134.924 146.554 134.994 146.394 135.133 146.184C135.272 145.981 135.444 145.759 135.65 145.519C135.855 145.285 136.058 145.059 136.259 144.841C136.459 144.63 136.62 144.457 136.743 144.324C137.04 144 137.292 143.668 137.5 143.326C137.708 142.991 137.82 142.653 137.836 142.312C137.852 141.977 137.723 141.647 137.449 141.32C137.075 140.874 136.626 140.675 136.105 140.724C135.582 140.779 135.065 141.021 134.554 141.45Z" fill="white"/>
<path d="M128.979 152.163L125.698 146.48L127.149 145.642L132.604 155.089L131.201 155.899L130.349 154.423L130.226 154.494C130.282 155.101 130.168 155.681 129.885 156.232C129.604 156.788 129.107 157.272 128.394 157.684C127.754 158.053 127.119 158.245 126.487 158.26C125.859 158.278 125.258 158.1 124.686 157.725C124.117 157.354 123.6 156.767 123.136 155.963L119.67 149.96L121.121 149.122L124.531 155.026C124.959 155.769 125.486 156.236 126.11 156.427C126.737 156.623 127.387 156.527 128.059 156.138C128.523 155.871 128.879 155.531 129.128 155.12C129.373 154.71 129.488 154.253 129.475 153.746C129.461 153.24 129.296 152.712 128.979 152.163Z" fill="white"/>
<path d="M112.83 152.766L116.561 163.018L114.986 163.591L111.255 153.34L112.83 152.766ZM116.382 165.018C116.689 164.906 116.992 164.914 117.29 165.042C117.584 165.172 117.785 165.384 117.892 165.677C117.999 165.971 117.981 166.262 117.839 166.551C117.693 166.841 117.466 167.042 117.159 167.153C116.852 167.265 116.552 167.256 116.257 167.126C115.959 166.998 115.756 166.787 115.649 166.494C115.542 166.2 115.562 165.908 115.709 165.618C115.85 165.33 116.075 165.129 116.382 165.018Z" fill="white"/>
<path d="M101.726 155.589C102.407 155.469 103.047 155.488 103.647 155.647C104.248 155.81 104.755 156.108 105.168 156.54C105.581 156.976 105.85 157.545 105.973 158.244C106.082 158.86 106.049 159.38 105.873 159.805C105.699 160.235 105.429 160.595 105.062 160.886C104.695 161.176 104.276 161.418 103.805 161.612C103.33 161.811 102.849 161.987 102.362 162.141C101.724 162.34 101.206 162.496 100.808 162.609C100.406 162.728 100.121 162.858 99.9531 162.998C99.7808 163.139 99.7181 163.342 99.765 163.608L99.7748 163.664C99.8965 164.354 100.18 164.857 100.625 165.173C101.065 165.489 101.666 165.581 102.426 165.447C103.214 165.308 103.801 165.026 104.188 164.602C104.575 164.178 104.825 163.754 104.937 163.331L106.603 163.614C106.438 164.316 106.155 164.89 105.753 165.336C105.347 165.788 104.879 166.134 104.349 166.377C103.816 166.625 103.279 166.796 102.738 166.892C102.393 166.953 101.989 166.98 101.527 166.975C101.061 166.976 100.596 166.887 100.132 166.709C99.6628 166.532 99.2437 166.215 98.8743 165.756C98.505 165.297 98.245 164.641 98.0946 163.787L96.8465 156.709L98.4971 156.418L98.7537 157.873L98.8376 157.858C98.9084 157.605 99.0509 157.323 99.2652 157.011C99.4794 156.699 99.7869 156.412 100.188 156.149C100.588 155.886 101.101 155.699 101.726 155.589ZM101.736 157.116C101.083 157.231 100.555 157.456 100.153 157.792C99.7458 158.128 99.4638 158.519 99.3069 158.965C99.1453 159.412 99.1039 159.859 99.1828 160.307L99.4492 161.818C99.5044 161.721 99.6447 161.617 99.8702 161.505C100.092 161.399 100.352 161.293 100.651 161.187C100.946 161.087 101.234 160.993 101.517 160.905C101.795 160.822 102.021 160.753 102.194 160.699C102.614 160.567 102.999 160.406 103.349 160.214C103.696 160.028 103.962 159.791 104.147 159.504C104.328 159.222 104.382 158.871 104.308 158.451C104.207 157.878 103.918 157.481 103.442 157.262C102.962 157.049 102.393 157 101.736 157.116Z" fill="white"/>
</svg>
