<svg width="469" height="112" viewBox="0 0 469 112" fill="none" xmlns="http://www.w3.org/2000/svg">
<path d="M0.03125 110H-0.96875V111H0.03125V110ZM0.03125 0.909088V-0.0909119H-0.96875V0.909088H0.03125ZM82.5419 18.0611L83.396 17.541L82.5419 18.0611ZM82.3821 57.745L81.5433 57.2006L81.5407 57.2046L82.3821 57.745ZM67.8402 69.8899L67.4394 68.9738L67.4375 68.9746L67.8402 69.8899ZM17.929 73.9915H16.929V74.9915H17.929V73.9915ZM17.929 50.9801V49.9801H16.929V50.9801H17.929ZM48.9837 49.7017L49.3122 50.6462L49.32 50.6434L48.9837 49.7017ZM54.6832 45.4936L53.8654 44.9181L53.8583 44.9284L54.6832 45.4936ZM54.6832 30.3658L53.8489 30.917L53.8546 30.9257L53.8605 30.9342L54.6832 30.3658ZM48.9837 25.9979L48.6193 26.9291L48.6273 26.9323L48.6355 26.9353L48.9837 25.9979ZM29.6477 24.5597V23.5597H28.6477V24.5597H29.6477ZM29.6477 110V111H30.6477V110H29.6477ZM63.9517 59.929L64.8299 59.4506L64.5457 58.929H63.9517V59.929ZM91.2244 110V111H92.9078L92.1026 109.522L91.2244 110ZM59.0511 110L58.1683 110.47L58.4504 111H59.0511V110ZM32.4176 59.929V58.929H30.753L31.5347 60.3986L32.4176 59.929ZM1.03125 110V0.909088H-0.96875V110H1.03125ZM0.03125 1.90909H47.1193V-0.0909119H0.03125V1.90909ZM47.1193 1.90909C55.0945 1.90909 62.0243 3.36038 67.9362 6.22988L68.8095 4.43063C62.5765 1.40524 55.3374 -0.0909119 47.1193 -0.0909119V1.90909ZM67.9362 6.22988C73.8434 9.0971 78.4183 13.2123 81.6878 18.5812L83.396 17.541C79.9184 11.8304 75.0473 7.4583 68.8095 4.43063L67.9362 6.22988ZM81.6878 18.5812C84.9489 23.9363 86.6023 30.3892 86.6023 37.9829H88.6023C88.6023 30.0938 86.882 23.2654 83.396 17.541L81.6878 18.5812ZM86.6023 37.9829C86.6023 45.6454 84.8969 52.0333 81.5433 57.2006L83.2209 58.2894C86.8275 52.7323 88.6023 45.9455 88.6023 37.9829H86.6023ZM81.5407 57.2046C78.2103 62.389 73.522 66.3126 67.4394 68.9738L68.241 70.8061C74.6584 67.9985 79.6647 63.8255 83.2235 58.2855L81.5407 57.2046ZM67.4375 68.9746C61.375 71.6421 54.2553 72.9915 46.054 72.9915V74.9915C54.472 74.9915 61.8765 73.6065 68.2429 70.8052L67.4375 68.9746ZM46.054 72.9915H17.929V74.9915H46.054V72.9915ZM18.929 73.9915V50.9801H16.929V73.9915H18.929ZM17.929 51.9801H40.0881V49.9801H17.929V51.9801ZM40.0881 51.9801C43.6443 51.9801 46.7271 51.5454 49.3122 50.6462L48.6551 48.7572C46.3397 49.5626 43.4921 49.9801 40.0881 49.9801V51.9801ZM49.32 50.6434C51.9763 49.6948 54.0594 48.1733 55.5082 46.0588L53.8583 44.9284C52.6793 46.6491 50.9627 47.9331 48.6473 48.76L49.32 50.6434ZM55.501 46.0691C57.0015 43.9368 57.7074 41.2137 57.7074 37.9829H55.7074C55.7074 40.9312 55.0638 43.2152 53.8654 44.9181L55.501 46.0691ZM57.7074 37.9829C57.7074 34.7184 57.0023 31.9631 55.506 29.7973L53.8605 30.9342C55.063 32.6747 55.7074 34.9975 55.7074 37.9829H57.7074ZM55.5176 29.8145C54.0736 27.629 51.9931 26.0489 49.3319 25.0604L48.6355 26.9353C50.9458 27.7934 52.6651 29.1252 53.8489 30.917L55.5176 29.8145ZM49.3481 25.0666C46.7509 24.0503 43.6549 23.5597 40.0881 23.5597V25.5597C43.4815 25.5597 46.3159 26.0278 48.6193 26.9291L49.3481 25.0666ZM40.0881 23.5597H29.6477V25.5597H40.0881V23.5597ZM28.6477 24.5597V110H30.6477V24.5597H28.6477ZM29.6477 109H0.03125V111H29.6477V109ZM63.0735 60.4073L90.3463 110.478L92.1026 109.522L64.8299 59.4506L63.0735 60.4073ZM91.2244 109H59.0511V111H91.2244V109ZM59.934 109.53L33.3005 59.4594L31.5347 60.3986L58.1683 110.47L59.934 109.53ZM32.4176 60.929H63.9517V58.929H32.4176V60.929ZM153.707 74.2045H152.707L152.707 74.2177L153.707 74.2045ZM153.707 28.1818V27.1818H152.707V28.1818H153.707ZM183.11 28.1818H184.11V27.1818H183.11V28.1818ZM183.11 110V111H184.11V110H183.11ZM155.198 110H154.198V111H155.198V110ZM155.198 94.446H156.198V93.446H155.198V94.446ZM154.346 94.446V93.446H153.63L153.399 94.124L154.346 94.446ZM145.024 106.697L145.573 107.534L145.577 107.531L145.024 106.697ZM114.183 107.124L113.658 107.975L113.661 107.977L114.183 107.124ZM104.222 96.2571L103.33 96.7098L103.333 96.7152L104.222 96.2571ZM100.653 80.3835H99.6527L99.6527 80.3895L100.653 80.3835ZM100.653 28.1818V27.1818H99.6527V28.1818H100.653ZM130.056 28.1818H131.056V27.1818H130.056V28.1818ZM130.056 74.2045H129.056L129.056 74.2133L130.056 74.2045ZM133.146 83.7393L132.394 84.3987L132.399 84.4051L133.146 83.7393ZM148.114 85.657L148.615 86.522L148.621 86.5189L148.114 85.657ZM152.268 81.1825L151.377 80.7288L151.374 80.7353L152.268 81.1825ZM154.707 74.2045V28.1818H152.707V74.2045H154.707ZM153.707 29.1818H183.11V27.1818H153.707V29.1818ZM182.11 28.1818V110H184.11V28.1818H182.11ZM183.11 109H155.198V111H183.11V109ZM156.198 110V94.446H154.198V110H156.198ZM155.198 93.446H154.346V95.446H155.198V93.446ZM153.399 94.124C151.692 99.1429 148.719 103.044 144.471 105.864L145.577 107.531C150.207 104.456 153.449 100.19 155.293 94.768L153.399 94.124ZM144.476 105.861C140.223 108.651 135.147 110.065 129.204 110.065V112.065C135.477 112.065 140.947 110.568 145.573 107.534L144.476 105.861ZM129.204 110.065C123.645 110.065 118.824 108.79 114.704 106.27L113.661 107.977C118.135 110.713 123.328 112.065 129.204 112.065V110.065ZM114.707 106.272C110.607 103.744 107.41 100.26 105.11 95.799L103.333 96.7152C105.792 101.487 109.236 105.248 113.658 107.975L114.707 106.272ZM105.113 95.8044C102.85 91.3461 101.687 86.2119 101.653 80.3776L99.6527 80.3895C99.689 86.487 100.906 91.9351 103.33 96.7098L105.113 95.8044ZM101.653 80.3835V28.1818H99.6527V80.3835H101.653ZM100.653 29.1818H130.056V27.1818H100.653V29.1818ZM129.056 28.1818V74.2045H131.056V28.1818H129.056ZM129.056 74.2133C129.093 78.4237 130.167 81.8595 132.394 84.3987L133.897 83.08C132.076 81.0027 131.09 78.082 131.056 74.1958L129.056 74.2133ZM132.399 84.4051C134.686 86.9672 137.857 88.2017 141.775 88.2017V86.2017C138.306 86.2017 135.725 85.128 133.892 83.0736L132.399 84.4051ZM141.775 88.2017C144.367 88.2017 146.66 87.656 148.615 86.522L147.612 84.7919C146.016 85.7176 144.083 86.2017 141.775 86.2017V88.2017ZM148.621 86.5189C150.602 85.3535 152.12 83.7164 153.163 81.6297L151.374 80.7353C150.5 82.4839 149.248 83.8297 147.607 84.795L148.621 86.5189ZM153.16 81.6362C154.243 79.5089 154.744 77.0154 154.707 74.1914L152.707 74.2177C152.741 76.7914 152.283 78.9499 151.377 80.7288L153.16 81.6362ZM197.639 110H196.639V111H197.639V110ZM197.639 0.909088V-0.0909119H196.639V0.909088H197.639ZM227.042 0.909088H228.042V-0.0909119H227.042V0.909088ZM227.042 42.4574H226.042V43.4574H227.042V42.4574ZM227.468 42.4574V43.4574H228.155L228.402 42.8164L227.468 42.4574ZM232.156 34.8402L232.902 35.506L232.907 35.5003L232.156 34.8402ZM239.826 29.2472L240.239 30.1579L240.248 30.1539L239.826 29.2472ZM265.874 31.4311L265.365 32.2919L265.368 32.2935L265.874 31.4311ZM277.806 45.0142L276.909 45.4573L276.911 45.4614L277.806 45.0142ZM278.019 92.5817L277.115 92.1531L277.113 92.1574L278.019 92.5817ZM266.3 106.484L265.771 105.636L265.768 105.637L266.3 106.484ZM239.986 109.201L239.592 110.12L239.599 110.123L239.605 110.126L239.986 109.201ZM232.316 104.034L231.591 104.723L231.597 104.729L231.603 104.735L232.316 104.034ZM227.468 96.5767L228.393 96.1971L228.139 95.5767H227.468V96.5767ZM226.829 96.5767V95.5767H225.829V96.5767H226.829ZM226.829 110V111H227.829V110H226.829ZM227.948 79.4247L227.005 79.7581L227.007 79.7651L227.01 79.772L227.948 79.4247ZM232.422 86.1364L231.782 86.9046L231.79 86.911L231.797 86.9172L232.422 86.1364ZM246.271 86.1896L246.902 86.9662L246.903 86.9649L246.271 86.1896ZM250.639 79.5312L249.697 79.1978L249.694 79.2045L250.639 79.5312ZM250.639 58.7038L249.693 59.027L249.695 59.034L249.698 59.0409L250.639 58.7038ZM246.271 52.0454L245.633 52.8149L245.641 52.8214L245.649 52.8277L246.271 52.0454ZM232.422 52.0454L233.045 52.8277L233.047 52.8263L232.422 52.0454ZM227.948 58.7038L227.008 58.3602L227.006 58.3668L227.948 58.7038ZM198.639 110V0.909088H196.639V110H198.639ZM197.639 1.90909H227.042V-0.0909119H197.639V1.90909ZM226.042 0.909088V42.4574H228.042V0.909088H226.042ZM227.042 43.4574H227.468V41.4574H227.042V43.4574ZM228.402 42.8164C229.422 40.164 230.919 37.728 232.902 35.506L231.41 34.1744C229.273 36.5689 227.645 39.211 226.535 42.0984L228.402 42.8164ZM232.907 35.5003C234.866 33.2709 237.305 31.4887 240.239 30.1579L239.413 28.3364C236.24 29.7755 233.565 31.7219 231.405 34.1801L232.907 35.5003ZM240.248 30.1539C243.146 28.806 246.548 28.1165 250.48 28.1165V26.1165C246.315 26.1165 242.614 26.8474 239.404 28.3404L240.248 30.1539ZM250.48 28.1165C255.69 28.1165 260.646 29.5021 265.365 32.2919L266.383 30.5703C261.371 27.6072 256.065 26.1165 250.48 26.1165V28.1165ZM265.368 32.2935C270.067 35.0519 273.923 39.4156 276.909 45.4573L278.702 44.5711C275.58 38.2549 271.482 33.5631 266.38 30.5687L265.368 32.2935ZM276.911 45.4614C279.908 51.455 281.44 59.3119 281.44 69.0909H283.44C283.44 59.1256 281.882 50.9314 278.7 44.567L276.911 45.4614ZM281.44 69.0909C281.44 78.4409 279.98 86.1129 277.115 92.1532L278.922 93.0102C281.952 86.6215 283.44 78.633 283.44 69.0909H281.44ZM277.113 92.1574C274.267 98.2305 270.479 102.702 265.771 105.636L266.829 107.333C271.922 104.159 275.946 99.3619 278.924 93.006L277.113 92.1574ZM265.768 105.637C261.065 108.59 255.905 110.065 250.267 110.065V112.065C256.276 112.065 261.805 110.487 266.832 107.331L265.768 105.637ZM250.267 110.065C246.539 110.065 243.245 109.462 240.367 108.276L239.605 110.126C242.764 111.426 246.323 112.065 250.267 112.065V110.065ZM240.38 108.282C237.508 107.051 235.062 105.4 233.028 103.333L231.603 104.735C233.831 107 236.498 108.794 239.592 110.12L240.38 108.282ZM233.04 103.345C231.029 101.232 229.482 98.8504 228.393 96.1971L226.543 96.9563C227.727 99.8427 229.412 102.433 231.591 104.723L233.04 103.345ZM227.468 95.5767H226.829V97.5767H227.468V95.5767ZM225.829 96.5767V110H227.829V96.5767H225.829ZM226.829 109H197.639V111H226.829V109ZM225.403 69.0909C225.403 73.1507 225.928 76.7133 227.005 79.7581L228.89 79.0913C227.908 76.3122 227.403 72.9856 227.403 69.0909H225.403ZM227.01 79.772C228.122 82.7751 229.702 85.1717 231.782 86.9046L233.062 85.3681C231.306 83.905 229.904 81.8272 228.885 79.0774L227.01 79.772ZM231.797 86.9172C233.942 88.6331 236.493 89.4801 239.4 89.4801V87.4801C236.909 87.4801 234.808 86.7646 233.047 85.3555L231.797 86.9172ZM239.4 89.4801C242.301 89.4801 244.821 88.6543 246.902 86.9662L245.641 85.4131C243.958 86.779 241.897 87.4801 239.4 87.4801V89.4801ZM246.903 86.9649C248.995 85.2605 250.543 82.8697 251.585 79.858L249.694 79.2045C248.747 81.9457 247.383 83.9937 245.64 85.4144L246.903 86.9649ZM251.582 79.8647C252.66 76.8182 253.184 73.2195 253.184 69.0909H251.184C251.184 73.0589 250.679 76.4204 249.697 79.1978L251.582 79.8647ZM253.184 69.0909C253.184 64.9629 252.66 61.3801 251.581 58.3668L249.698 59.0409C250.679 61.7804 251.184 65.1224 251.184 69.0909H253.184ZM251.586 58.3807C250.545 55.3339 248.995 52.9362 246.894 51.2632L245.649 52.8277C247.383 54.2087 248.745 56.2499 249.693 59.027L251.586 58.3807ZM246.91 51.276C244.83 49.5489 242.306 48.7017 239.4 48.7017V50.7017C241.891 50.7017 243.949 51.417 245.633 52.8149L246.91 51.276ZM239.4 48.7017C236.493 48.7017 233.942 49.5487 231.797 51.2646L233.047 52.8263C234.808 51.4172 236.909 50.7017 239.4 50.7017V48.7017ZM231.799 51.2632C229.704 52.9313 228.12 55.321 227.008 58.3603L228.887 59.0474C229.906 56.2628 231.305 54.2136 233.045 52.8277L231.799 51.2632ZM227.006 58.3668C225.927 61.3801 225.403 64.9629 225.403 69.0909H227.403C227.403 65.1224 227.908 61.7804 228.889 59.0409L227.006 58.3668ZM311.364 106.484L310.891 107.366L310.897 107.369L311.364 106.484ZM296.822 91.9957L295.94 92.4666L295.943 92.4725L296.822 91.9957ZM296.875 47.1449L297.755 47.6196L296.875 47.1449ZM311.311 32.3899L311.803 33.2603L311.311 32.3899ZM350.089 29.9929L350.447 29.059L350.089 29.9929ZM362.926 38.3558L362.209 39.0524L362.212 39.0559L362.926 38.3558ZM371.129 51.5661L370.192 51.9129L371.129 51.5661ZM374.006 75.9091V76.9091H375.006V75.9091H374.006ZM300.923 75.9091H299.923V76.9091H300.923V75.9091ZM300.923 59.7159V58.7159H299.923V59.7159H300.923ZM346.946 59.7159V60.7159H347.961L347.946 59.7008L346.946 59.7159ZM345.135 53.5369L344.288 54.0684L344.294 54.0782L344.301 54.0878L345.135 53.5369ZM340.501 49.3288L340.028 50.2098L340.037 50.215L340.047 50.22L340.501 49.3288ZM327.397 49.3288L327.844 50.2233L327.851 50.2201L327.857 50.2168L327.397 49.3288ZM322.603 53.4837L321.776 52.9213L321.769 52.9328L322.603 53.4837ZM320.739 59.7159L319.739 59.6861L319.739 59.701V59.7159H320.739ZM322.39 84.2188L321.508 84.6901L322.39 84.2188ZM327.131 89.0661L326.636 89.9352L327.131 89.0661ZM340.128 89.9716L339.812 89.0229L339.806 89.0249L340.128 89.9716ZM344.496 87.5213L345.158 88.2711L345.164 88.2658L345.17 88.2603L344.496 87.5213ZM347.159 83.5795V82.5795H346.464L346.222 83.2308L347.159 83.5795ZM374.006 83.5795L374.993 83.7399L375.181 82.5795H374.006V83.5795ZM367.454 98.3878L368.224 99.026L368.227 99.0228L367.454 98.3878ZM353.764 108.082L354.138 109.01L354.141 109.009L353.764 108.082ZM333.949 110.491C325.34 110.491 317.979 108.847 311.831 105.6L310.897 107.369C317.39 110.798 325.086 112.491 333.949 112.491V110.491ZM311.837 105.603C305.724 102.322 301.017 97.6334 297.701 91.519L295.943 92.4725C299.445 98.9291 304.433 103.899 310.891 107.365L311.837 105.603ZM297.704 91.5249C294.424 85.3783 292.762 77.9837 292.762 69.304H290.762C290.762 78.2379 292.473 85.9711 295.94 92.4666L297.704 91.5249ZM292.762 69.304C292.762 60.9886 294.438 53.7709 297.755 47.6196L295.995 46.6702C292.494 53.1609 290.762 60.7159 290.762 69.304H292.762ZM297.755 47.6196C301.076 41.4633 305.753 36.6826 311.803 33.2603L310.818 31.5195C304.439 35.1285 299.493 40.1844 295.995 46.6702L297.755 47.6196ZM311.803 33.2603C317.842 29.844 324.999 28.1165 333.31 28.1165V26.1165C324.717 26.1165 317.208 27.9045 310.818 31.5195L311.803 33.2603ZM333.31 28.1165C339.385 28.1165 344.854 29.059 349.731 30.9268L350.447 29.059C345.309 27.0916 339.593 26.1165 333.31 26.1165V28.1165ZM349.731 30.9268C354.61 32.7951 358.764 35.5044 362.209 39.0524L363.644 37.6592C359.986 33.8919 355.582 31.0259 350.447 29.059L349.731 30.9268ZM362.212 39.0559C365.656 42.5687 368.318 46.8485 370.192 51.9129L372.067 51.2192C370.105 45.9143 367.299 41.3873 363.64 37.6558L362.212 39.0559ZM370.192 51.9129C372.062 56.9689 373.006 62.6904 373.006 69.0909H375.006C375.006 62.4943 374.033 56.5325 372.067 51.2192L370.192 51.9129ZM373.006 69.0909V75.9091H375.006V69.0909H373.006ZM374.006 74.9091H300.923V76.9091H374.006V74.9091ZM301.923 75.9091V59.7159H299.923V75.9091H301.923ZM300.923 60.7159H346.946V58.7159H300.923V60.7159ZM347.946 59.7008C347.908 57.1865 347.257 54.9368 345.97 52.9861L344.301 54.0878C345.357 55.6882 345.913 57.5579 345.946 59.7311L347.946 59.7008ZM345.982 53.0054C344.747 51.0371 343.065 49.5119 340.955 48.4377L340.047 50.22C341.843 51.1344 343.25 52.4146 344.288 54.0684L345.982 53.0054ZM340.974 48.4478C338.893 47.3305 336.543 46.7841 333.949 46.7841V48.7841C336.255 48.7841 338.273 49.2675 340.028 50.2098L340.974 48.4478ZM333.949 46.7841C331.42 46.7841 329.077 47.3328 326.937 48.4408L327.857 50.2168C329.695 49.2652 331.72 48.7841 333.949 48.7841V46.7841ZM326.95 48.4344C324.814 49.5023 323.083 50.9993 321.776 52.9213L323.43 54.046C324.538 52.4169 326.003 51.144 327.844 50.2233L326.95 48.4344ZM321.769 52.9328C320.483 54.8813 319.815 57.1439 319.739 59.6861L321.738 59.7457C321.805 57.5294 322.38 55.6372 323.438 54.0345L321.769 52.9328ZM319.739 59.7159V77.1875H321.739V59.7159H319.739ZM319.739 77.1875C319.739 79.9589 320.321 82.4681 321.508 84.6901L323.272 83.7474C322.258 81.8501 321.739 79.6718 321.739 77.1875H319.739ZM321.508 84.6901C322.699 86.9189 324.415 88.6714 326.636 89.9352L327.625 88.1969C325.727 87.1169 324.283 85.638 323.272 83.7474L321.508 84.6901ZM326.636 89.9352C328.878 91.2104 331.542 91.8239 334.588 91.8239V89.8239C331.81 89.8239 329.503 89.2654 327.625 88.1969L326.636 89.9352ZM334.588 91.8239C336.706 91.8239 338.663 91.5266 340.45 90.9182L339.806 89.0249C338.255 89.553 336.519 89.8239 334.588 89.8239V91.8239ZM340.444 90.9203C342.261 90.3146 343.838 89.435 345.158 88.2711L343.834 86.7715C342.739 87.7383 341.404 88.4922 339.812 89.0229L340.444 90.9203ZM345.17 88.2603C346.494 87.0525 347.473 85.6049 348.096 83.9283L346.222 83.2308C345.71 84.6082 344.912 85.7884 343.822 86.7823L345.17 88.2603ZM347.159 84.5795H374.006V82.5795H347.159V84.5795ZM373.019 83.4192C372.122 88.9377 370.007 93.7073 366.682 97.7528L368.227 99.0228C371.79 94.6876 374.043 89.5851 374.993 83.7399L373.019 83.4192ZM366.684 97.7495C363.359 101.761 358.938 104.901 353.388 107.156L354.141 109.009C359.954 106.647 364.66 103.324 368.224 99.026L366.684 97.7495ZM353.391 107.155C347.888 109.37 341.415 110.491 333.949 110.491V112.491C341.611 112.491 348.348 111.341 354.138 109.01L353.391 107.155ZM415.408 63.9773L414.408 63.9641V63.9773H415.408ZM415.408 110V111H416.408V110H415.408ZM386.004 110H385.004V111H386.004V110ZM386.004 28.1818V27.1818H385.004V28.1818H386.004ZM413.916 28.1818H414.916V27.1818H413.916V28.1818ZM413.916 43.7358H412.916V44.7358H413.916V43.7358ZM414.768 43.7358V44.7358H415.483L415.715 44.0598L414.768 43.7358ZM424.143 31.5376L423.596 30.7006L423.593 30.7025L424.143 31.5376ZM454.985 31.1115L454.455 31.9595L454.463 31.9646L454.985 31.1115ZM464.946 41.978L464.054 42.4307L464.057 42.4361L464.946 41.978ZM468.462 57.7983L467.462 57.7923V57.7983H468.462ZM468.462 110V111H469.462V110H468.462ZM439.058 110H438.058V111H439.058V110ZM439.058 63.9773L438.058 63.9685V63.9773H439.058ZM435.969 54.4425L435.223 55.1083L435.228 55.1146L435.969 54.4425ZM421.001 52.5781L421.502 53.4432L421.508 53.4401L421.001 52.5781ZM416.899 57.0526L417.794 57.4998L417.797 57.4932L416.899 57.0526ZM414.408 63.9773V110H416.408V63.9773H414.408ZM415.408 109H386.004V111H415.408V109ZM387.004 110V28.1818H385.004V110H387.004ZM386.004 29.1818H413.916V27.1818H386.004V29.1818ZM412.916 28.1818V43.7358H414.916V28.1818H412.916ZM413.916 44.7358H414.768V42.7358H413.916V44.7358ZM415.715 44.0598C417.42 39.0795 420.409 35.1954 424.694 32.3727L423.593 30.7025C418.929 33.7748 415.668 38.0228 413.822 43.4118L415.715 44.0598ZM424.691 32.3747C429.02 29.5455 434.08 28.1165 439.911 28.1165V26.1165C433.738 26.1165 428.287 27.6349 423.596 30.7006L424.691 32.3747ZM439.911 28.1165C445.54 28.1165 450.376 29.4098 454.455 31.9595L455.515 30.2635C451.072 27.4865 445.857 26.1165 439.911 26.1165V28.1165ZM454.463 31.9646C458.598 34.493 461.792 37.9745 464.054 42.4307L465.838 41.5253C463.413 36.7485 459.966 32.9857 455.507 30.2584L454.463 31.9646ZM464.057 42.4361C466.353 46.8899 467.496 52.0002 467.462 57.7923L469.462 57.8043C469.498 51.7356 468.298 46.299 465.835 41.5199L464.057 42.4361ZM467.462 57.7983V110H469.462V57.7983H467.462ZM468.462 109H439.058V111H468.462V109ZM440.058 110V63.9773H438.058V110H440.058ZM440.058 63.986C440.095 59.7636 439.019 56.3152 436.709 53.7704L435.228 55.1146C437.109 57.1862 438.092 60.0943 438.058 63.9685L440.058 63.986ZM436.715 53.7767C434.429 51.2146 431.257 49.9801 427.339 49.9801V51.9801C430.808 51.9801 433.389 53.0539 435.223 55.1083L436.715 53.7767ZM427.339 49.9801C424.773 49.9801 422.48 50.5477 420.494 51.7162L421.508 53.4401C423.143 52.4779 425.076 51.9801 427.339 51.9801V49.9801ZM420.499 51.7131C418.542 52.8482 417.042 54.4925 416.001 56.6119L417.797 57.4932C418.674 55.7064 419.908 54.3677 421.502 53.4432L420.499 51.7131ZM416.005 56.6053C414.963 58.6881 414.445 61.1524 414.408 63.9641L416.408 63.9904C416.442 61.4044 416.917 59.2522 417.794 57.4998L416.005 56.6053Z" fill="#7580D4" fill-opacity="0.3"/>
</svg>
