<svg width="120" height="568" viewBox="0 0 120 568" fill="none" xmlns="http://www.w3.org/2000/svg">
<path d="M77 61.8381L76.9203 60.8413L76 60.9149L76 61.8381L77 61.8381ZM85.3097 57.843L84.5471 57.196L84.5424 57.2017L85.3097 57.843ZM87.174 39.6257L86.2362 39.973L86.2398 39.9824L87.174 39.6257ZM84.2443 35.3643L84.8406 34.5616L84.2443 35.3643ZM79.983 33.9261L79.929 34.9247L79.9448 34.9255L79.9607 34.9259L79.983 33.9261ZM76.4141 34.6186L75.9668 33.7242L75.9487 33.7332L75.931 33.743L76.4141 34.6186ZM73.5909 37.282L72.7739 36.7053L72.7682 36.7134L72.7626 36.7216L73.5909 37.282ZM69.5426 48.6278L70.5205 48.8374L70.5221 48.8291L69.5426 48.6278ZM67.625 57.5767L66.6472 57.3672L66.6467 57.3695L67.625 57.5767ZM55.1605 83.6243L54.467 82.9038L54.4625 82.9082L55.1605 83.6243ZM45.679 89.6435L45.3372 88.7036L45.3289 88.7068L45.679 89.6435ZM34.1733 91.6676L34.1683 92.6677L34.1818 92.6676L34.1733 91.6676ZM15.956 86.2876L15.3747 87.1014L15.956 86.2876ZM4.61009 71.0533L5.54095 70.6879L5.54028 70.6862L4.61009 71.0533ZM4.92969 22.527L4.00088 22.1564L4.00024 22.158L4.92969 22.527ZM17.8736 6.12073L17.3224 5.28634L17.3165 5.29024L17.8736 6.12073ZM40.3523 0.261359L41.3523 0.261359L41.3523 -0.74254L40.3484 -0.738633L40.3523 0.261359ZM40.3523 28.3864L40.4054 29.3849L41.3523 29.3346L41.3523 28.3864L40.3523 28.3864ZM31.9361 30.8899L31.3874 30.0539L31.9361 30.8899ZM26.7692 37.1754L25.8519 36.7771L25.85 36.7815L26.7692 37.1754ZM26.1832 54.8601L25.2444 55.2043L26.1832 54.8601ZM29.4325 59.7074L28.8103 60.4902L29.4325 59.7074ZM34.1733 61.4119L34.1533 62.4117L34.1739 62.4121L34.1946 62.4117L34.1733 61.4119ZM38.5412 59.7606L37.9139 58.9819L37.902 58.9915L37.8904 59.0014L38.5412 59.7606ZM41.9503 54.647L41.0325 54.2498L41.0276 54.2614L41.9503 54.647ZM44.8267 45.0057L45.8035 45.2199L45.8042 45.2165L44.8267 45.0057ZM47.1705 34.1392L46.1932 33.9272L46.1929 33.9284L47.1705 34.1392ZM57.6641 11.2876L56.9174 10.6224L56.913 10.6274L57.6641 11.2876ZM77.8523 3.03125L77.8481 4.03128L77.8574 4.03123L77.8523 3.03125ZM96.0163 8.57102L96.6012 7.7599L96.6002 7.75917L96.0163 8.57102ZM108.214 24.1783L109.131 23.7785L109.13 23.7767L108.214 24.1783ZM108.161 69.9879L107.252 69.5711L108.161 69.9879ZM95.6967 84.8494L95.1523 84.0106L95.1459 84.0148L95.6967 84.8494ZM77 90.1761L76 90.1761L76 91.1811L77.005 91.1761L77 90.1761ZM77.0797 62.8349C80.8551 62.5328 83.8901 61.1007 86.0769 58.4843L84.5424 57.2017C82.7519 59.3439 80.2471 60.5751 76.9203 60.8413L77.0797 62.8349ZM86.0722 58.49C88.2796 55.8884 89.2926 52.0413 89.2926 47.1364L87.2926 47.1364C87.2926 51.8194 86.317 55.1102 84.5472 57.1961L86.0722 58.49ZM89.2926 47.1364C89.2926 44.0116 88.9126 41.3756 88.1082 39.269L86.2398 39.9824C86.9269 41.782 87.2926 44.1531 87.2926 47.1364L89.2926 47.1364ZM88.1118 39.2784C87.3554 37.2363 86.2817 35.6321 84.8406 34.5616L83.648 36.1671C84.6928 36.9432 85.5721 38.1799 86.2363 39.973L88.1118 39.2784ZM84.8406 34.5616C83.4258 33.5105 81.8032 32.9663 80.0052 32.9264L79.9607 34.9259C81.3587 34.957 82.5771 35.3716 83.648 36.1671L84.8406 34.5616ZM80.0369 32.9276C78.5683 32.8482 77.2032 33.106 75.9668 33.7242L76.8613 35.513C77.7556 35.0659 78.7697 34.862 79.929 34.9247L80.0369 32.9276ZM75.931 33.743C74.7392 34.4006 73.6917 35.4051 72.7739 36.7053L74.4079 37.8586C75.1947 36.744 76.0293 35.973 76.8971 35.4942L75.931 33.743ZM72.7626 36.7216C71.8853 38.0185 71.1056 39.6448 70.4124 41.5787L72.295 42.2537C72.9512 40.4234 73.663 38.9602 74.4192 37.8423L72.7626 36.7216ZM70.4124 41.5787C69.7176 43.5168 69.1024 45.8018 68.5631 48.4266L70.5221 48.8291C71.0482 46.2692 71.6404 44.0798 72.295 42.2537L70.4124 41.5787ZM68.5648 48.4183L66.6472 57.3672L68.6028 57.7862L70.5204 48.8374L68.5648 48.4183ZM66.6467 57.3695C65.3806 63.3483 63.7165 68.4334 61.6658 72.6391L63.4635 73.5157C65.6031 69.1276 67.3126 63.879 68.6033 57.7839L66.6467 57.3695ZM61.6658 72.6391C59.6114 76.8523 57.2077 80.2659 54.467 82.9038L55.854 84.3448C58.7952 81.5139 61.3275 77.8962 63.4635 73.5157L61.6658 72.6391ZM54.4625 82.9082C51.7538 85.5484 48.7133 87.476 45.3372 88.7037L46.0207 90.5833C49.6759 89.2541 52.9565 87.169 55.8585 84.3404L54.4625 82.9082ZM45.3289 88.7068C41.9336 89.9757 38.2154 90.633 34.1647 90.6677L34.1818 92.6676C38.4409 92.6312 42.3931 91.9391 46.0291 90.5802L45.3289 88.7068ZM34.1782 90.6676C27.1747 90.633 21.3128 88.885 16.5372 85.4739L15.3747 87.1014C20.5423 90.7925 26.8253 92.6313 34.1683 92.6676L34.1782 90.6676ZM16.5372 85.4739C11.7472 82.0525 8.07425 77.1426 5.54095 70.6879L3.67921 71.4186C6.33058 78.1741 10.2215 83.4205 15.3747 87.1014L16.5372 85.4739ZM5.54028 70.6862C3.00584 64.2633 1.72159 56.4934 1.72159 47.3494L-0.278414 47.3494C-0.278415 56.6714 1.02966 64.704 3.67988 71.4203L5.54028 70.6862ZM1.72159 47.3494C1.72159 37.9641 3.11029 29.8202 5.85913 22.896L4.00024 22.158C1.13827 29.3673 -0.278414 37.7716 -0.278414 47.3494L1.72159 47.3494ZM5.85849 22.8976C8.5954 16.038 12.7877 10.7361 18.4306 6.95122L17.3165 5.29024C11.3118 9.31784 6.87477 14.9535 4.00088 22.1564L5.85849 22.8976ZM18.4248 6.95511C24.0796 3.21952 31.3668 1.29633 40.3562 1.26135L40.3484 -0.738633C31.0849 -0.702589 23.3863 1.28047 17.3224 5.28636L18.4248 6.95511ZM39.3523 0.261359L39.3523 28.3864L41.3523 28.3864L41.3523 0.261359L39.3523 0.261359ZM40.2992 27.3878C36.8248 27.5726 33.8385 28.4453 31.3874 30.0539L32.4847 31.726C34.5791 30.3515 37.2036 29.5553 40.4054 29.3849L40.2992 27.3878ZM31.3874 30.0539C28.9383 31.6611 27.0947 33.9149 25.8519 36.7771L27.6864 37.5737C28.7874 35.0382 30.3884 33.1017 32.4847 31.726L31.3874 30.0539ZM25.85 36.7815C24.6127 39.6687 24.0114 43.0583 24.0114 46.9233L26.0114 46.9233C26.0114 43.2599 26.5819 40.1509 27.6883 37.5693L25.85 36.7815ZM24.0114 46.9233C24.0114 50.1586 24.4102 52.9294 25.2444 55.2043L27.1221 54.5158C26.3938 52.5294 26.0114 50.009 26.0114 46.9233L24.0114 46.9233ZM25.2444 55.2043C26.0713 57.4595 27.2461 59.2469 28.8103 60.4902L30.0548 58.9246C28.849 57.9661 27.8577 56.522 27.1221 54.5158L25.2444 55.2043ZM28.8103 60.4902C30.3675 61.728 32.1595 62.3719 34.1533 62.4117L34.1933 60.4121C32.6359 60.381 31.2675 59.8885 30.0548 58.9246L28.8103 60.4902ZM34.1946 62.4117C36.09 62.3714 37.7696 61.7391 39.192 60.5199L37.8904 59.0014C36.8269 59.9129 35.5947 60.3815 34.152 60.4122L34.1946 62.4117ZM39.1685 60.5394C40.6301 59.362 41.8476 57.4862 42.873 55.0326L41.0276 54.2614C40.0644 56.5664 39.0091 58.0996 37.9139 58.9819L39.1685 60.5394ZM42.868 55.0442C43.9338 52.5818 44.9091 49.2985 45.8035 45.2199L43.8499 44.7915C42.9688 48.8095 42.0264 51.9537 41.0326 54.2498L42.868 55.0442ZM45.8042 45.2165L48.148 34.35L46.1929 33.9284L43.8492 44.7948L45.8042 45.2165ZM48.1477 34.3512C50.2184 24.8052 53.658 17.36 58.4152 11.9478L56.913 10.6274C51.869 16.3659 48.3129 24.155 46.1932 33.9272L48.1477 34.3512ZM58.4107 11.9529C63.1268 6.66002 69.5649 3.99672 77.8481 4.03124L77.8564 2.03126C69.0942 1.99475 62.0735 4.83571 56.9174 10.6224L58.4107 11.9529ZM77.8574 4.03123C84.5897 3.99671 90.434 5.78808 95.4325 9.38287L96.6002 7.75917C91.2294 3.89657 84.9643 1.99476 77.8471 2.03126L77.8574 4.03123ZM95.4314 9.38214C100.489 13.0291 104.449 18.0817 107.299 24.5799L109.13 23.7767C106.156 16.9936 101.984 11.6414 96.6012 7.75991L95.4314 9.38214ZM107.298 24.5781C110.146 31.107 111.582 38.6196 111.582 47.1364L113.582 47.1364C113.582 38.3946 112.107 30.6018 109.131 23.7785L107.298 24.5781ZM111.582 47.1364C111.582 55.8337 110.127 63.3023 107.252 69.5711L109.07 70.4048C112.09 63.8184 113.582 56.0527 113.582 47.1364L111.582 47.1364ZM107.252 69.5711C104.375 75.8452 100.339 80.6445 95.1523 84.0106L96.2411 85.6883C101.779 82.0941 106.052 76.9858 109.07 70.4048L107.252 69.5711ZM95.1459 84.0148C90 87.4111 83.9624 89.1415 76.995 89.1762L77.005 91.1761C84.3131 91.1398 90.7401 89.319 96.2476 85.684L95.1459 84.0148ZM78 90.1761L78 61.8381L76 61.8381L76 90.1761L78 90.1761ZM83.8182 152.152L83.8182 153.152L84.8182 153.152L84.8182 152.152L83.8182 152.152ZM62.5114 152.152L61.5114 152.152L61.5114 153.152L62.5114 153.152L62.5114 152.152ZM62.5114 98.2461L62.5114 97.2461L61.5114 97.2461L61.5114 98.2461L62.5114 98.2461ZM83.8182 98.2461L84.8182 98.2461L84.8182 97.2461L83.8182 97.2461L83.8182 98.2461ZM103.42 108.686L104.42 108.686L104.42 107.686L103.42 107.686L103.42 108.686ZM103.42 138.09L103.42 139.09L104.42 139.09L104.42 138.09L103.42 138.09ZM25.4375 138.676L24.9903 137.781L24.9818 137.786L24.9735 137.79L25.4375 138.676ZM23.7329 140.487L22.8308 140.055L22.8231 140.072L22.8159 140.088L23.7329 140.487ZM23.5199 146.719L24.5047 146.545L24.5037 146.54L23.5199 146.719ZM24.0526 149.382L24.2545 150.362L25.2755 150.151L25.0227 149.14L24.0526 149.382ZM3.38494 153.644L2.4264 153.929L2.68795 154.809L3.58688 154.623L3.38494 153.644ZM1.94672 147.998L2.92088 147.772L2.92014 147.768L1.94672 147.998ZM0.828119 139.368L-0.170493 139.421L-0.170462 139.421L0.828119 139.368ZM2.90553 122.376L1.97311 122.015L1.9707 122.021L2.90553 122.376ZM11.2685 112.042L10.7493 111.188L11.2685 112.042ZM25.544 108.686L25.5316 109.686L25.544 109.686L25.544 108.686ZM83.8182 151.152L62.5114 151.152L62.5114 153.152L83.8182 153.152L83.8182 151.152ZM63.5114 152.152L63.5114 98.2461L61.5114 98.2461L61.5114 152.152L63.5114 152.152ZM62.5114 99.2461L83.8182 99.2461L83.8182 97.2461L62.5114 97.2461L62.5114 99.2461ZM82.8182 98.2461L82.8182 152.152L84.8182 152.152L84.8182 98.2461L82.8182 98.2461ZM102.42 108.686L102.42 138.09L104.42 138.09L104.42 108.686L102.42 108.686ZM103.42 137.09L28.3139 137.09L28.3139 139.09L103.42 139.09L103.42 137.09ZM28.3139 137.09C27.0674 137.09 25.9457 137.304 24.9903 137.781L25.8847 139.57C26.4918 139.267 27.2877 139.09 28.3139 139.09L28.3139 137.09ZM24.9735 137.79C24.0217 138.288 23.3071 139.059 22.8308 140.055L24.6351 140.918C24.94 140.281 25.3618 139.844 25.9015 139.562L24.9735 137.79ZM22.8159 140.088C22.3877 141.073 22.2003 142.269 22.2003 143.63L24.2003 143.63C24.2003 142.433 24.368 141.534 24.65 140.886L22.8159 140.088ZM22.2003 143.63C22.2003 144.594 22.3156 145.686 22.536 146.898L24.5037 146.54C24.298 145.409 24.2003 144.441 24.2003 143.63L22.2003 143.63ZM22.5351 146.893C22.7488 148.104 22.9314 149.021 23.0824 149.625L25.0227 149.14C24.8896 148.608 24.717 147.749 24.5047 146.545L22.5351 146.893ZM23.8506 148.403L3.18299 152.664L3.58688 154.623L24.2545 150.362L23.8506 148.403ZM4.34347 153.359C3.96157 152.074 3.48757 150.215 2.92088 147.772L0.972573 148.223C1.54224 150.68 2.02705 152.586 2.4264 153.929L4.34347 153.359ZM2.92014 147.768C2.3693 145.427 2.00211 142.613 1.8267 139.315L-0.170462 139.421C0.00922515 142.8 0.38778 145.738 0.973306 148.227L2.92014 147.768ZM1.82673 139.316C1.47634 132.658 2.16462 127.143 3.84037 122.731L1.9707 122.021C0.16633 126.771 -0.530325 132.584 -0.170493 139.421L1.82673 139.316ZM3.83795 122.737C5.54272 118.339 8.19616 115.079 11.7877 112.897L10.7493 111.188C6.74133 113.622 3.81948 117.251 1.97312 122.015L3.83795 122.737ZM11.7877 112.897C15.3874 110.71 19.9488 109.617 25.5316 109.686L25.5565 107.687C19.7046 107.614 14.7489 108.758 10.7493 111.188L11.7877 112.897ZM25.544 109.686L103.42 109.686L103.42 107.686L25.544 107.686L25.544 109.686ZM3.2784 173.1L2.36219 172.699L2.35799 172.709L3.2784 173.1ZM11.1619 163.725L10.619 162.885L11.1619 163.725ZM36.0376 162.606L35.6026 163.506L35.6065 163.508L36.0376 162.606ZM43.8679 168.998L43.0641 169.593L43.8679 168.998ZM48.5021 178.533L49.4622 178.253L49.4615 178.251L48.5021 178.533ZM50.5795 190.358L49.5824 190.434L49.5825 190.435L50.5795 190.358ZM51.8579 201.384L50.8736 201.561L50.8755 201.571L51.8579 201.384ZM54.0419 207.457L53.2391 208.053L53.2446 208.06L53.2501 208.068L54.0419 207.457ZM62.9375 206.871L62.1166 206.3L62.9375 206.871ZM62.7777 193.714L61.9561 194.284L61.9585 194.287L62.7777 193.714ZM57.1847 190.571L56.1847 190.571L56.1847 191.44L57.0452 191.561L57.1847 190.571ZM57.1847 163.512L57.2559 162.514L56.1847 162.438L56.1847 163.512L57.1847 163.512ZM70.9276 168.252L71.4855 167.422L71.4839 167.421L70.9276 168.252ZM81.0483 180.664L80.1412 181.084L80.1435 181.089L81.0483 180.664ZM82.8061 216.779L81.8476 216.493L81.8457 216.5L82.8061 216.779ZM77.1065 228.657L76.3065 228.057L76.3024 228.063L77.1065 228.657ZM68.5838 236.115L68.1212 235.228L68.1097 235.234L68.5838 236.115ZM1.99999 238.725L0.999989 238.725L0.999989 239.725L1.99999 239.725L1.99999 238.725ZM1.99999 211.239L1.99999 210.239L0.999991 210.239L0.999991 211.239L1.99999 211.239ZM13.5057 211.239L13.5057 212.239L14.5057 212.239L14.5057 211.239L13.5057 211.239ZM13.5057 210.6L14.5057 210.6L14.5057 210L13.9773 209.718L13.5057 210.6ZM6.10155 204.634L6.88129 204.008L6.87658 204.002L6.10155 204.634ZM1.99999 196.697L2.96152 196.422L2.96064 196.419L1.99999 196.697ZM20.6435 202.823L21.5505 202.401L21.5475 202.395L20.6435 202.823ZM24.6385 207.67L25.2197 206.856L24.6385 207.67ZM37.7954 209.534L37.7954 210.534L39.285 210.534L38.721 209.156L37.7954 209.534ZM36.8899 207.031L37.8424 206.726L37.8386 206.714L36.8899 207.031ZM36.0909 204.261L37.0611 204.018L37.0589 204.01L36.0909 204.261ZM35.3984 201.171L36.3802 200.981L36.379 200.975L35.3984 201.171ZM34.8125 197.816L35.8012 197.666L35.8005 197.661L34.8125 197.816ZM33.0547 192.222L32.1784 192.704L32.1825 192.712L33.0547 192.222ZM30.125 189.026L30.6433 188.171L30.6355 188.167L30.125 189.026ZM21.0696 190.411L21.8675 191.014L21.0696 190.411ZM1.72158 186.949C1.72158 181.837 2.55607 177.358 4.1988 173.491L2.35799 172.709C0.591636 176.867 -0.27842 181.621 -0.27842 186.949L1.72158 186.949ZM4.19456 173.5C5.85905 169.696 8.36033 166.726 11.7048 164.564L10.619 162.885C6.93227 165.268 4.17788 168.549 2.36225 172.699L4.19456 173.5ZM11.7048 164.564C15.017 162.423 19.288 161.316 24.5852 161.316L24.5852 159.316C19.0159 159.316 14.3381 160.481 10.619 162.885L11.7048 164.564ZM24.5852 161.316C28.9491 161.316 32.6097 162.06 35.6026 163.506L36.4727 161.706C33.1445 160.098 29.1702 159.316 24.5852 159.316L24.5852 161.316ZM35.6065 163.508C38.6614 164.968 41.1413 166.995 43.0641 169.593L44.6716 168.403C42.5462 165.532 39.8059 163.298 36.4687 161.704L35.6065 163.508ZM43.0641 169.593C45.0112 172.223 46.5069 175.293 47.5428 178.815L49.4615 178.251C48.3667 174.528 46.7729 171.242 44.6716 168.403L43.0641 169.593ZM47.542 178.812C48.5859 182.397 49.2674 186.269 49.5824 190.434L51.5767 190.283C51.2524 185.995 50.549 181.984 49.4622 178.253L47.542 178.812ZM49.5825 190.435C49.9388 195.032 50.3681 198.744 50.8737 201.561L52.8422 201.208C52.3535 198.485 51.9305 194.846 51.5766 190.281L49.5825 190.435ZM50.8755 201.571C51.4164 204.42 52.1785 206.625 53.2391 208.053L54.8446 206.861C54.0587 205.802 53.3648 203.96 52.8404 201.198L50.8755 201.571ZM53.2501 208.068C54.3972 209.555 55.9497 210.321 57.8239 210.321L57.8239 208.321C56.573 208.321 55.6042 207.845 54.8337 206.846L53.2501 208.068ZM57.8239 210.321L58.0369 210.321L58.0369 208.321L57.8239 208.321L57.8239 210.321ZM58.0369 210.321C60.4676 210.321 62.42 209.366 63.7584 207.442L62.1166 206.3C61.1822 207.643 59.8676 208.321 58.0369 208.321L58.0369 210.321ZM63.7584 207.442C65.0406 205.599 65.642 203.288 65.642 200.585L63.642 200.585C63.642 202.996 63.1071 204.876 62.1166 206.3L63.7584 207.442ZM65.642 200.585C65.642 197.635 64.9878 195.127 63.5969 193.14L61.9585 194.287C63.0534 195.852 63.642 197.925 63.642 200.585L65.642 200.585ZM63.5993 193.144C62.2013 191.129 60.061 189.966 57.3241 189.581L57.0452 191.561C59.351 191.886 60.9394 192.819 61.9561 194.284L63.5993 193.144ZM58.1847 190.571L58.1847 163.512L56.1847 163.512L56.1847 190.571L58.1847 190.571ZM57.1134 164.509C61.9095 164.852 66.3236 166.373 70.3712 169.083L71.4839 167.421C67.1508 164.52 62.403 162.882 57.2559 162.514L57.1134 164.509ZM70.3696 169.082C74.419 171.804 77.6831 175.787 80.1412 181.084L81.9554 180.243C79.3709 174.673 75.8878 170.382 71.4855 167.422L70.3696 169.082ZM80.1435 181.089C82.6195 186.351 83.8835 192.977 83.8835 201.012L85.8835 201.012C85.8835 192.782 84.5907 185.843 81.9531 180.238L80.1435 181.089ZM83.8835 201.012C83.8835 206.794 83.2 211.951 81.8477 216.493L83.7645 217.064C85.182 212.303 85.8835 206.948 85.8835 201.012L83.8835 201.012ZM81.8457 216.5C80.5238 221.057 78.6723 224.903 76.3065 228.057L77.9065 229.257C80.4413 225.877 82.3896 221.804 83.7665 217.057L81.8457 216.5ZM76.3024 228.063C73.9684 231.22 71.2404 233.601 68.1212 235.228L69.0464 237.001C72.4613 235.219 75.4151 232.628 77.9107 229.252L76.3024 228.063ZM68.1097 235.234C65.0291 236.893 61.6772 237.725 58.0369 237.725L58.0369 239.725C61.9961 239.725 65.6754 238.816 69.0579 236.995L68.1097 235.234ZM58.0369 237.725L1.99999 237.725L1.99999 239.725L58.0369 239.725L58.0369 237.725ZM2.99999 238.725L2.99999 211.239L0.999991 211.239L0.999989 238.725L2.99999 238.725ZM1.99999 212.239L13.5057 212.239L13.5057 210.239L1.99999 210.239L1.99999 212.239ZM14.5057 211.239L14.5057 210.6L12.5057 210.6L12.5057 211.239L14.5057 211.239ZM13.9773 209.718C11.0243 208.138 8.66709 206.231 6.88126 204.008L5.32184 205.26C7.30022 207.723 9.87913 209.794 13.034 211.481L13.9773 209.718ZM6.87658 204.002C5.08381 201.803 3.77808 199.28 2.96151 196.422L1.03847 196.972C1.92644 200.08 3.35509 202.848 5.32653 205.266L6.87658 204.002ZM2.96064 196.419C2.13819 193.575 1.72158 190.421 1.72158 186.949L-0.27842 186.949C-0.27842 190.58 0.157248 193.924 1.03934 196.975L2.96064 196.419ZM18.2585 196.537C18.2585 198.917 18.7506 201.158 19.7394 203.25L21.5475 202.395C20.6897 200.581 20.2585 198.632 20.2585 196.537L18.2585 196.537ZM19.7364 203.244C20.7306 205.385 22.1728 207.138 24.0572 208.484L25.2197 206.856C23.6241 205.716 22.4029 204.237 21.5505 202.401L19.7364 203.244ZM24.0572 208.484C25.9933 209.867 28.318 210.534 30.9773 210.534L30.9773 208.534C28.6649 208.534 26.7638 207.959 25.2197 206.856L24.0572 208.484ZM30.9773 210.534L37.7954 210.534L37.7954 208.534L30.9773 208.534L30.9773 210.534ZM38.721 209.156C38.4123 208.401 38.1192 207.591 37.8423 206.726L35.9375 207.335C36.2288 208.246 36.5394 209.105 36.8699 209.913L38.721 209.156ZM37.8386 206.714C37.5636 205.89 37.3043 204.991 37.061 204.018L35.1208 204.503C35.3747 205.519 35.648 206.467 35.9412 207.347L37.8386 206.714ZM37.0589 204.01C36.8162 203.074 36.5898 202.064 36.3802 200.981L34.4166 201.361C34.6332 202.48 34.8685 203.53 35.1229 204.512L37.0589 204.01ZM36.379 200.975C36.1693 199.927 35.9766 198.823 35.8012 197.666L33.8238 197.965C34.0035 199.151 34.2014 200.285 34.4178 201.367L36.379 200.975ZM35.8005 197.661C35.4335 195.312 34.8193 193.324 33.9268 191.733L32.1825 192.712C32.9236 194.033 33.4813 195.773 33.8245 197.97L35.8005 197.661ZM33.9309 191.741C33.0807 190.195 31.9905 188.988 30.6433 188.171L29.6067 189.882C30.6032 190.486 31.4662 191.409 32.1785 192.704L33.9309 191.741ZM30.6355 188.167C29.3331 187.393 27.876 187.014 26.2898 187.014L26.2898 189.014C27.5445 189.014 28.6441 189.31 29.6145 189.886L30.6355 188.167ZM26.2898 187.014C23.7518 187.014 21.6954 187.924 20.2717 189.809L21.8675 191.014C22.8586 189.702 24.2823 189.014 26.2898 189.014L26.2898 187.014ZM20.2717 189.809C18.9043 191.618 18.2585 193.887 18.2585 196.537L20.2585 196.537C20.2585 194.215 20.8202 192.4 21.8675 191.014L20.2717 189.809ZM48.0227 282.177L48.0359 281.177L48.0227 281.177L48.0227 282.177ZM1.99999 282.177L0.999987 282.177L0.999987 283.177L1.99999 283.177L1.99999 282.177ZM1.99999 252.774L1.99999 251.774L0.999989 251.774L0.999989 252.774L1.99999 252.774ZM83.8182 252.774L84.8182 252.774L84.8182 251.774L83.8182 251.774L83.8182 252.774ZM83.8182 280.686L83.8182 281.686L84.8182 281.686L84.8182 280.686L83.8182 280.686ZM68.2642 280.686L68.2642 279.686L67.2642 279.686L67.2642 280.686L68.2642 280.686ZM68.2642 281.538L67.2642 281.538L67.2642 282.253L67.9402 282.484L68.2642 281.538ZM80.4623 290.913L81.2994 290.366L81.2974 290.363L80.4623 290.913ZM80.8885 321.755L80.0404 321.225L80.0354 321.233L80.8885 321.755ZM70.022 331.716L69.5693 330.824L69.5639 330.827L70.022 331.716ZM54.2017 335.231L54.2077 334.231L54.2017 334.231L54.2017 335.231ZM1.99999 335.231L0.999985 335.231L0.999985 336.231L1.99999 336.231L1.99999 335.231ZM1.99999 305.828L1.99999 304.828L0.999987 304.828L0.999986 305.828L1.99999 305.828ZM48.0227 305.828L48.0315 304.828L48.0227 304.828L48.0227 305.828ZM57.5575 302.738L56.8917 301.992L56.8854 301.998L57.5575 302.738ZM59.4219 287.77L58.5568 288.272L58.5599 288.277L59.4219 287.77ZM54.9474 283.669L54.5002 284.563L54.5068 284.566L54.9474 283.669ZM48.0227 281.177L1.99999 281.177L1.99999 283.177L48.0227 283.177L48.0227 281.177ZM2.99999 282.177L2.99999 252.774L0.999989 252.774L0.999987 282.177L2.99999 282.177ZM1.99999 253.774L83.8182 253.774L83.8182 251.774L1.99999 251.774L1.99999 253.774ZM82.8182 252.774L82.8182 280.686L84.8182 280.686L84.8182 252.774L82.8182 252.774ZM83.8182 279.686L68.2642 279.686L68.2642 281.686L83.8182 281.686L83.8182 279.686ZM67.2642 280.686L67.2642 281.538L69.2642 281.538L69.2642 280.686L67.2642 280.686ZM67.9402 282.484C72.9205 284.19 76.8046 287.178 79.6272 291.463L81.2974 290.363C78.2252 285.699 73.9772 282.437 68.5882 280.592L67.9402 282.484ZM79.6253 291.46C82.4545 295.789 83.8835 300.85 83.8835 306.68L85.8835 306.68C85.8835 300.507 84.3651 295.057 81.2994 290.366L79.6253 291.46ZM83.8835 306.68C83.8835 312.31 82.5902 317.145 80.0405 321.225L81.7365 322.285C84.5135 317.841 85.8835 312.627 85.8835 306.68L83.8835 306.68ZM80.0354 321.233C77.507 325.367 74.0255 328.562 69.5693 330.824L70.4747 332.607C75.2515 330.182 79.0143 326.736 81.7416 322.276L80.0354 321.233ZM69.5639 330.827C65.1101 333.122 59.9998 334.266 54.2077 334.231L54.1957 336.231C60.2644 336.267 65.701 335.068 70.4801 332.604L69.5639 330.827ZM54.2017 334.231L1.99999 334.231L1.99999 336.231L54.2017 336.231L54.2017 334.231ZM2.99999 335.231L2.99999 305.828L0.999986 305.828L0.999985 335.231L2.99999 335.231ZM1.99999 306.828L48.0227 306.828L48.0227 304.828L1.99999 304.828L1.99999 306.828ZM48.0139 306.828C52.2364 306.865 55.6848 305.789 58.2296 303.479L56.8854 301.998C54.8137 303.878 51.9057 304.862 48.0315 304.828L48.0139 306.828ZM58.2233 303.484C60.7854 301.198 62.0199 298.027 62.0199 294.109L60.0199 294.109C60.0199 297.578 58.9461 300.159 56.8917 301.992L58.2233 303.484ZM62.0199 294.109C62.0199 291.543 61.4523 289.25 60.2838 287.263L58.5599 288.277C59.5221 289.913 60.0199 291.846 60.0199 294.109L62.0199 294.109ZM60.2869 287.269C59.1518 285.311 57.5075 283.811 55.3881 282.771L54.5068 284.566C56.2936 285.444 57.6323 286.678 58.5568 288.272L60.2869 287.269ZM55.3946 282.774C53.3119 281.733 50.8476 281.214 48.0359 281.177L48.0096 283.177C50.5956 283.211 52.7478 283.687 54.5002 284.563L55.3946 282.774ZM5.78195 366.366L4.91009 365.876L4.90802 365.88L5.78195 366.366ZM20.5902 351.824L20.1214 350.941L20.1193 350.942L20.5902 351.824ZM64.7486 351.824L64.2777 352.706L64.2798 352.707L64.7486 351.824ZM79.5568 366.366L78.6829 366.852L78.685 366.856L79.5568 366.366ZM80.5156 409.991L79.6201 409.546L79.6169 409.553L80.5156 409.991ZM68.2642 423.681L67.743 422.828L67.7404 422.829L68.2642 423.681ZM49.7273 428.582L48.7273 428.582L48.7273 429.587L49.7323 429.582L49.7273 428.582ZM49.7273 401.309L49.6367 400.313L48.7273 400.396L48.7273 401.309L49.7273 401.309ZM59.5284 397.58L58.8569 396.839L58.8508 396.845L58.8448 396.85L59.5284 397.58ZM60.7003 382.879L59.9038 383.483L59.9109 383.492L60.7003 382.879ZM54.0419 378.404L53.702 379.345L53.7055 379.346L54.0419 378.404ZM31.723 378.404L31.3867 377.462L31.3831 377.464L31.723 378.404ZM25.0646 382.879L24.2752 382.265L24.2682 382.274L25.0646 382.879ZM24.3721 395.343L23.513 395.855L23.517 395.862L23.5211 395.868L24.3721 395.343ZM28.8466 399.391L29.3188 398.51L29.313 398.507L28.8466 399.391ZM36.0909 401.309L37.0909 401.309L37.0909 400.381L36.1657 400.312L36.0909 401.309ZM36.0909 428.582L36.0761 429.582L37.0909 429.597L37.0909 428.582L36.0909 428.582ZM17.2344 423.628L16.7199 424.485L16.7224 424.487L17.2344 423.628ZM4.8764 410.045L5.77191 409.6L5.77083 409.598L4.8764 410.045ZM1.50851 389.164C1.50851 380.418 3.23974 372.994 6.65587 366.852L4.90802 365.88C1.29289 372.38 -0.491487 380.154 -0.491488 389.164L1.50851 389.164ZM6.65378 366.856C10.1126 360.699 14.9105 355.989 21.061 352.706L20.1193 350.942C13.6278 354.406 8.55354 359.391 4.91011 365.876L6.65378 366.856ZM21.059 352.707C27.249 349.422 34.4518 347.763 42.696 347.763L42.696 345.763C34.1789 345.763 26.6444 347.479 20.1214 350.941L21.059 352.707ZM42.696 347.763C50.9404 347.763 58.1244 349.422 64.2777 352.706L65.2194 350.942C58.7307 347.479 51.213 345.763 42.696 345.763L42.696 347.763ZM64.2798 352.707C70.4648 355.99 75.2606 360.699 78.6829 366.852L80.4307 365.88C76.8218 359.391 71.7454 354.405 65.2174 350.941L64.2798 352.707ZM78.685 366.856C82.1352 372.997 83.8835 380.42 83.8835 389.164L85.8835 389.164C85.8835 380.153 84.0807 372.377 80.4286 365.876L78.685 366.856ZM83.8835 389.164C83.8835 397.07 82.4495 403.853 79.6201 409.546L81.4111 410.437C84.4056 404.411 85.8835 397.31 85.8835 389.164L83.8835 389.164ZM79.6169 409.553C76.8191 415.287 72.8617 419.701 67.743 422.828L68.7854 424.535C74.2491 421.198 78.4593 416.486 81.4143 410.43L79.6169 409.553ZM67.7404 422.829C62.6632 425.951 56.6695 427.547 49.7223 427.582L49.7323 429.582C56.9895 429.545 63.3538 427.874 68.788 424.533L67.7404 422.829ZM50.7273 428.582L50.7273 401.309L48.7273 401.309L48.7273 428.582L50.7273 428.582ZM49.8178 402.305C54.248 401.902 57.7575 400.609 60.2119 398.31L58.8448 396.85C56.8249 398.742 53.8003 399.935 49.6367 400.313L49.8178 402.305ZM60.1999 398.321C62.6967 396.059 63.9375 393.119 63.9375 389.59L61.9375 389.59C61.9375 392.596 60.9056 394.983 58.8569 396.839L60.1999 398.321ZM63.9375 389.59C63.9375 386.824 63.1251 384.367 61.4896 382.265L59.9109 383.492C61.2584 385.225 61.9375 387.243 61.9375 389.59L63.9375 389.59ZM61.4967 382.274C59.8916 380.16 57.4873 378.573 54.3782 377.462L53.7055 379.346C56.5624 380.366 58.597 381.762 59.9038 383.483L61.4967 382.274ZM54.3818 377.464C51.2896 376.346 47.454 375.806 42.9091 375.806L42.9091 377.806C47.313 377.806 50.8993 378.332 53.702 379.345L54.3818 377.464ZM42.9091 375.806C38.3635 375.806 34.5121 376.346 31.3867 377.462L32.0593 379.346C34.8998 378.331 38.5058 377.806 42.9091 377.806L42.9091 375.806ZM31.3831 377.464C28.3088 378.575 25.9119 380.16 24.2753 382.265L25.854 383.492C27.2003 381.762 29.2423 380.364 32.0629 379.345L31.3831 377.464ZM24.2682 382.274C22.6717 384.377 21.8807 386.829 21.8807 389.59L23.8807 389.59C23.8807 387.237 24.5456 385.216 25.8611 383.483L24.2682 382.274ZM21.8807 389.59C21.8807 391.915 22.4162 394.014 23.513 395.855L25.2312 394.831C24.3394 393.334 23.8807 391.597 23.8807 389.59L21.8807 389.59ZM23.5211 395.868C24.6561 397.708 26.2894 399.173 28.3802 400.276L29.313 398.507C27.4975 397.55 26.1478 396.316 25.2232 394.818L23.5211 395.868ZM28.3744 400.273C30.5137 401.419 33.0714 402.085 36.0161 402.306L36.1657 400.312C33.4286 400.106 31.1567 399.494 29.3188 398.51L28.3744 400.273ZM35.0909 401.309L35.0909 428.582L37.0909 428.582L37.0909 401.309L35.0909 401.309ZM36.1057 427.582C29.0446 427.477 22.9361 425.862 17.7463 422.769L16.7224 424.487C22.2571 427.786 28.7196 429.473 36.0761 429.582L36.1057 427.582ZM17.7489 422.77C12.5949 419.678 8.60359 415.298 5.77191 409.6L3.98089 410.49C6.97308 416.511 11.2204 421.186 16.7199 424.485L17.7489 422.77ZM5.77083 409.598C2.94316 403.942 1.50851 397.142 1.50851 389.164L-0.491488 389.164C-0.491488 397.379 0.985776 404.5 3.98198 410.492L5.77083 409.598ZM1.99998 440.713L1.99998 439.713L0.999981 439.713L0.999981 440.713L1.99998 440.713ZM83.8182 440.713L84.8182 440.713L84.8182 439.713L83.8182 439.713L83.8182 440.713ZM83.8182 470.117L83.8182 471.117L84.8182 471.117L84.8182 470.117L83.8182 470.117ZM1.99998 470.117L0.999979 470.117L0.999979 471.117L1.99998 471.117L1.99998 470.117ZM96.2826 445.188L95.5485 444.509L96.2826 445.188ZM115.246 445.188L115.98 444.509L115.246 445.188ZM115.246 465.642L114.516 464.959L114.512 464.963L115.246 465.642ZM96.2826 465.642L97.0168 464.963L97.0125 464.959L96.2826 465.642ZM1.99998 441.713L83.8182 441.713L83.8182 439.713L1.99998 439.713L1.99998 441.713ZM82.8182 440.713L82.8182 470.117L84.8182 470.117L84.8182 440.713L82.8182 440.713ZM83.8182 469.117L1.99998 469.117L1.99998 471.117L83.8182 471.117L83.8182 469.117ZM2.99998 470.117L2.99998 440.713L0.999981 440.713L0.999979 470.117L2.99998 470.117ZM93.3409 455.415C93.3409 451.682 94.565 448.517 97.0167 445.867L95.5485 444.509C92.7446 447.54 91.3409 451.194 91.3409 455.415L93.3409 455.415ZM97.0167 445.867C99.4655 443.219 102.364 441.926 105.764 441.926L105.764 439.926C101.778 439.926 98.3555 441.474 95.5485 444.509L97.0167 445.867ZM105.764 441.926C109.164 441.926 112.063 443.219 114.512 445.867L115.98 444.509C113.173 441.474 109.751 439.926 105.764 439.926L105.764 441.926ZM114.512 445.867C116.963 448.517 118.187 451.682 118.187 455.415L120.187 455.415C120.187 451.194 118.784 447.54 115.98 444.509L114.512 445.867ZM118.187 455.415C118.187 459.186 116.962 462.347 114.516 464.959L115.976 466.326C118.785 463.326 120.187 459.669 120.187 455.415L118.187 455.415ZM114.512 464.963C112.063 467.611 109.164 468.904 105.764 468.904L105.764 470.904C109.751 470.904 113.173 469.356 115.98 466.321L114.512 464.963ZM105.764 468.904C102.364 468.904 99.4655 467.611 97.0167 464.963L95.5485 466.321C98.3555 469.356 101.778 470.904 105.764 470.904L105.764 468.904ZM97.0125 464.959C94.5665 462.347 93.3409 459.186 93.3409 455.415L91.3409 455.415C91.3409 459.669 92.7432 463.326 95.5528 466.326L97.0125 464.959ZM37.7954 538.152L37.7954 537.152L37.7823 537.152L37.7954 538.152ZM83.8182 538.152L84.8182 538.152L84.8182 537.152L83.8182 537.152L83.8182 538.152ZM83.8182 567.555L83.8182 568.555L84.8182 568.555L84.8182 567.555L83.8182 567.555ZM1.99998 567.555L0.999975 567.555L0.999975 568.555L1.99997 568.555L1.99998 567.555ZM1.99998 539.643L1.99998 538.643L0.999976 538.643L0.999976 539.643L1.99998 539.643ZM17.554 539.643L17.554 540.643L18.554 540.643L18.554 539.643L17.554 539.643ZM17.554 538.791L18.554 538.791L18.554 538.075L17.876 537.844L17.554 538.791ZM5.30253 529.469L4.46638 530.018L4.46946 530.023L5.30253 529.469ZM4.8764 498.628L4.02522 498.103L4.02329 498.106L4.8764 498.628ZM15.7429 488.667L15.2902 487.775L15.2848 487.778L15.7429 488.667ZM31.6165 485.098L31.6165 484.098L31.6105 484.098L31.6165 485.098ZM83.8182 485.098L84.8182 485.098L84.8182 484.098L83.8182 484.098L83.8182 485.098ZM83.8182 514.501L83.8182 515.501L84.8182 515.501L84.8182 514.501L83.8182 514.501ZM37.7954 514.501L37.7954 513.501L37.7867 513.501L37.7954 514.501ZM28.2606 517.591L27.6013 516.839L27.5948 516.845L28.2606 517.591ZM26.343 532.559L25.478 533.061L25.4811 533.066L26.343 532.559ZM30.8175 536.714L31.2711 535.823L31.2647 535.819L30.8175 536.714ZM37.7954 539.152L83.8182 539.152L83.8182 537.152L37.7954 537.152L37.7954 539.152ZM82.8182 538.152L82.8182 567.555L84.8182 567.555L84.8182 538.152L82.8182 538.152ZM83.8182 566.555L1.99998 566.555L1.99997 568.555L83.8182 568.555L83.8182 566.555ZM2.99998 567.555L2.99998 539.643L0.999976 539.643L0.999975 567.555L2.99998 567.555ZM1.99998 540.643L17.554 540.643L17.554 538.643L1.99998 538.643L1.99998 540.643ZM18.554 539.643L18.554 538.791L16.554 538.791L16.554 539.643L18.554 539.643ZM17.876 537.844C12.8571 536.137 8.95635 533.164 6.13561 528.916L4.46946 530.023C7.5436 534.652 11.8105 537.894 17.2319 539.738L17.876 537.844ZM6.13868 528.921C3.34905 524.668 1.93464 519.592 1.93464 513.649L-0.0653608 513.649C-0.065361 519.922 1.43215 525.393 4.46639 530.018L6.13868 528.921ZM1.93464 513.649C1.93464 508.09 3.2102 503.269 5.7295 499.15L4.02329 498.106C1.28692 502.58 -0.0653605 507.773 -0.0653608 513.649L1.93464 513.649ZM5.72756 499.153C8.25626 495.052 11.7399 491.855 16.201 489.556L15.2848 487.778C10.5129 490.237 6.75221 493.681 4.02523 498.103L5.72756 499.153ZM16.1956 489.559C20.6539 487.295 25.7881 486.133 31.6224 486.098L31.6105 484.098C25.513 484.134 20.0648 485.351 15.2902 487.775L16.1956 489.559ZM31.6165 486.098L83.8182 486.098L83.8182 484.098L31.6165 484.098L31.6165 486.098ZM82.8182 485.098L82.8182 514.501L84.8182 514.501L84.8182 485.098L82.8182 485.098ZM83.8182 513.501L37.7954 513.501L37.7954 515.501L83.8182 515.501L83.8182 513.501ZM37.7867 513.501C33.5763 513.538 30.1404 514.612 27.6013 516.839L28.92 518.343C30.9973 516.521 33.918 515.535 37.8042 515.501L37.7867 513.501ZM27.5948 516.845C25.0328 519.131 23.7983 522.302 23.7983 526.22L25.7983 526.22C25.7983 522.752 26.872 520.17 28.9264 518.337L27.5948 516.845ZM23.7983 526.22C23.7983 528.812 24.344 531.106 25.478 533.061L27.208 532.057C26.2824 530.461 25.7983 528.528 25.7983 526.22L23.7983 526.22ZM25.4811 533.066C26.6464 535.047 28.2836 536.565 30.3702 537.608L31.2647 535.819C29.5161 534.945 28.1703 533.693 27.2049 532.052L25.4811 533.066ZM30.3638 537.605C32.4911 538.688 34.9846 539.189 37.8086 539.152L37.7823 537.152C35.2086 537.186 33.05 536.728 31.2711 535.823L30.3638 537.605Z" fill="#7580D4" fill-opacity="0.3"/>
</svg>
